<?xml version="1.0" standalone="no"?>
<!DOCTYPE svg PUBLIC "-//W3C//DTD SVG 20010904//EN"
 "http://www.w3.org/TR/2001/REC-SVG-20010904/DTD/svg10.dtd">
<svg version="1.0" xmlns="http://www.w3.org/2000/svg"
 width="640.000000pt" height="640.000000pt" viewBox="0 0 640.000000 640.000000"
 preserveAspectRatio="xMidYMid meet">

<g transform="translate(0.000000,640.000000) scale(0.100000,-0.100000)"
fill="#000000" stroke="none">
<path d="M1683 6063 c-20 -7 -18 -212 2 -240 34 -48 144 -51 187 -6 20 22 23
36 26 127 4 107 -5 134 -41 120 -12 -4 -16 -27 -19 -104 -1 -55 -7 -103 -13
-109 -20 -20 -62 -23 -79 -6 -12 13 -16 37 -16 110 0 80 -3 96 -17 103 -10 5
-24 7 -30 5z"/>
<path d="M1987 6059 c-15 -9 -17 -27 -17 -133 0 -93 3 -126 14 -135 11 -9 18
-8 30 4 12 12 16 36 16 92 l0 76 23 -34 c12 -19 35 -55 50 -81 30 -51 56 -71
81 -62 13 5 16 27 16 139 0 117 -2 134 -17 139 -29 12 -43 -21 -43 -103 l0
-76 -54 84 c-59 92 -73 104 -99 90z"/>
<path d="M2338 6058 c-14 -12 -30 -49 -89 -200 -17 -42 -17 -49 -3 -62 20 -20
37 -12 51 24 10 28 15 30 61 30 47 0 51 -2 71 -35 23 -39 32 -42 51 -19 11 13
6 35 -35 135 -41 101 -65 139 -87 139 -2 0 -11 -6 -20 -12z m40 -107 c16 -52
16 -51 -18 -51 -16 0 -30 3 -30 6 0 17 24 84 30 84 4 0 12 -17 18 -39z"/>
<path d="M4122 6061 c-11 -6 -14 -39 -13 -137 2 -133 8 -152 43 -133 16 9 18
24 18 132 0 136 -9 163 -48 138z"/>
<path d="M4284 6051 c-106 -48 -95 -231 17 -261 77 -21 149 18 149 82 0 39
-34 38 -54 -1 -31 -60 -109 -44 -122 24 -8 45 1 79 28 105 30 28 55 25 88 -10
35 -37 60 -39 60 -5 0 32 -40 70 -81 79 -41 8 -38 8 -85 -13z"/>
<path d="M4523 6063 c-10 -3 -13 -41 -13 -138 0 -139 4 -153 43 -133 15 8 17
25 17 131 0 135 -7 157 -47 140z"/>
<path d="M4636 6055 c-23 -23 -24 -246 -1 -265 29 -24 44 5 47 93 l3 82 53
-86 c52 -87 69 -103 97 -93 12 5 15 30 15 139 0 98 -3 134 -12 138 -31 10 -38
-5 -38 -92 l-1 -86 -20 25 c-11 14 -39 54 -62 89 -47 72 -57 79 -81 56z"/>
<path d="M4987 6053 c-19 -22 -97 -216 -97 -242 0 -19 25 -35 40 -26 4 2 13
18 20 35 12 28 16 30 66 30 39 0 54 -4 54 -14 0 -25 34 -58 53 -51 25 10 22
31 -24 146 -37 93 -66 139 -89 139 -4 0 -14 -8 -23 -17z m62 -145 c1 -5 -15
-8 -35 -8 -38 0 -38 1 -12 70 10 25 10 25 28 -15 10 -22 19 -43 19 -47z"/>
<path d="M1394 6045 c-10 -24 5 -35 47 -35 l39 0 0 -109 c0 -91 3 -110 16
-115 35 -13 44 12 44 120 l0 103 38 3 c30 2 38 7 40 26 3 22 2 22 -108 22 -87
0 -112 -3 -116 -15z"/>
<path d="M2598 6054 c-9 -9 -11 -225 -2 -248 8 -21 133 -22 173 -1 62 32 77
157 26 221 -22 27 -28 29 -107 32 -45 2 -86 0 -90 -4z m146 -60 c9 -8 16 -27
17 -42 4 -84 -15 -112 -73 -112 l-38 0 0 85 0 85 39 0 c23 0 46 -7 55 -16z"/>
<path d="M2890 6041 c-5 -11 -10 -63 -10 -116 0 -135 0 -135 116 -135 78 0 96
3 101 16 9 24 -15 34 -84 34 l-63 0 0 35 0 35 65 0 c57 0 65 2 65 19 0 24 -19
31 -81 31 -46 0 -49 2 -49 25 0 24 3 25 54 25 67 0 86 7 86 31 0 17 -8 19 -95
19 -83 0 -96 -2 -105 -19z"/>
<path d="M3227 6053 c-4 -3 -7 -62 -7 -129 0 -110 2 -124 18 -133 31 -17 42 7
43 94 l1 80 19 -80 c32 -134 71 -135 105 -3 l22 83 1 -81 c1 -59 5 -85 16 -94
12 -10 18 -10 30 0 12 10 15 37 15 125 0 63 -3 120 -6 129 -4 11 -19 16 -45
16 -38 0 -39 -1 -53 -52 -8 -29 -17 -66 -21 -83 -8 -37 -17 -23 -35 55 -7 30
-17 61 -23 68 -10 13 -69 17 -80 5z"/>
<path d="M3556 6044 c-3 -9 -6 -62 -6 -119 0 -57 3 -110 6 -119 9 -23 199 -24
208 -1 8 22 -25 35 -94 35 l-61 0 3 33 c3 32 3 32 68 37 49 4 66 9 68 21 4 20
-25 29 -90 29 -44 0 -48 2 -48 25 0 23 3 25 53 25 71 0 97 9 97 31 0 17 -9 19
-99 19 -81 0 -100 -3 -105 -16z"/>
<path d="M3824 6047 c-2 -7 -3 -67 -2 -133 l3 -119 76 -3 c70 -3 79 -1 108 23
70 60 61 192 -16 234 -31 16 -162 15 -169 -2z m148 -54 c13 -11 18 -30 18 -66
0 -64 -19 -87 -72 -87 l-38 0 0 85 0 85 37 0 c20 0 45 -7 55 -17z"/>
<path d="M3200 5661 c-5 -11 -10 -24 -10 -29 0 -16 37 -2 61 24 l22 24 -31 0
c-21 0 -35 -7 -42 -19z"/>
<path d="M2159 5583 c-16 -42 -7 -232 11 -243 20 -13 86 -12 131 0 55 15 82
50 87 115 9 108 -37 155 -152 155 -63 0 -67 -1 -77 -27z m142 -42 c19 -16 24
-29 24 -69 0 -62 -16 -82 -66 -82 l-39 0 0 85 0 85 29 0 c16 0 39 -9 52 -19z"/>
<path d="M2463 5603 c-18 -7 -18 -244 -1 -261 13 -13 153 -17 182 -6 9 3 16
15 16 25 0 20 -20 24 -112 22 -36 0 -38 1 -38 33 l0 34 53 0 c55 0 95 19 83
38 -4 7 -34 12 -72 12 l-64 0 0 30 0 30 63 0 c70 0 91 9 81 33 -5 14 -21 17
-93 16 -47 0 -92 -3 -98 -6z"/>
<path d="M2793 5598 c-4 -7 -9 -61 -11 -119 -4 -113 6 -153 36 -147 14 3 18
20 22 98 l5 95 18 -80 c21 -93 28 -109 52 -113 27 -6 36 11 55 100 l18 83 1
-76 c1 -81 16 -117 45 -106 15 6 16 23 14 139 l-3 133 -37 3 c-44 4 -51 -6
-68 -96 -7 -34 -16 -64 -20 -67 -3 -2 -14 29 -24 69 -9 40 -22 78 -28 84 -16
16 -65 15 -75 0z"/>
<path d="M3182 5573 c-38 -76 -84 -202 -80 -220 6 -31 41 -22 57 15 14 30 18
32 66 32 48 0 52 -2 66 -32 16 -37 51 -46 57 -15 4 18 -42 144 -80 220 -14 28
-25 37 -43 37 -18 0 -29 -9 -43 -37z m61 -78 l16 -45 -35 0 c-32 0 -35 2 -28
23 13 41 23 67 28 67 2 0 11 -20 19 -45z"/>
<path d="M3407 5604 c-13 -13 -8 -249 5 -262 15 -15 151 -16 178 -2 13 7 21 7
25 0 13 -20 36 -9 52 25 16 33 20 35 65 35 45 0 49 -2 65 -35 13 -26 23 -35
38 -33 32 5 28 35 -23 158 -39 95 -51 116 -70 118 -13 2 -29 -1 -36 -7 -7 -6
-32 -60 -56 -121 -42 -106 -52 -122 -65 -100 -3 6 -33 10 -65 10 l-59 0 -3
108 c-3 99 -5 107 -23 110 -12 2 -24 0 -28 -4z m353 -136 c0 -13 -8 -18 -31
-18 -33 0 -33 3 -6 70 l9 25 14 -30 c7 -16 13 -38 14 -47z"/>
<path d="M3936 5589 c-80 -63 -72 -198 14 -242 43 -22 126 -19 165 7 23 15 26
22 23 69 l-3 52 -54 3 c-36 2 -57 -1 -62 -9 -12 -19 -1 -29 31 -29 54 0 50
-45 -5 -56 -49 -9 -75 4 -92 44 -29 69 3 132 68 132 29 0 42 -6 57 -27 13 -17
25 -24 36 -20 25 10 20 53 -10 76 -37 29 -131 29 -168 0z"/>
<path d="M4253 5598 c-21 -27 -94 -221 -91 -241 5 -37 36 -33 55 7 16 34 20
36 64 36 43 0 49 -3 68 -36 23 -38 53 -43 59 -11 4 18 -43 144 -80 220 -19 39
-55 51 -75 25z m50 -103 l16 -45 -35 0 c-32 0 -35 2 -28 23 13 41 23 67 28 67
2 0 11 -20 19 -45z"/>
<path d="M3148 5044 c-21 -13 -45 -35 -54 -49 -9 -14 -22 -25 -29 -25 -8 0
-28 -12 -45 -26 -28 -24 -31 -31 -25 -64 5 -32 3 -38 -20 -48 -88 -40 -198
-29 -283 30 l-46 31 -15 -24 c-58 -89 -132 -138 -208 -139 -41 0 -42 1 -48 38
-10 66 -26 87 -70 90 -22 2 -48 10 -57 19 -28 25 -98 27 -135 4 -18 -12 -33
-26 -33 -33 0 -6 12 -1 26 13 34 32 98 33 138 2 19 -15 36 -21 51 -17 32 8 61
-27 63 -73 1 -20 6 -41 11 -46 15 -15 92 -11 134 7 36 14 110 86 132 127 10
18 13 18 52 -11 22 -16 70 -38 105 -47 56 -14 73 -15 121 -4 78 17 107 42 100
85 -4 27 -1 36 22 54 15 12 32 22 37 22 4 0 28 20 51 45 24 25 50 45 59 45 20
0 86 -51 93 -72 3 -9 19 -20 36 -23 35 -8 52 -36 44 -74 -4 -20 0 -32 14 -45
27 -24 88 -45 133 -46 44 0 129 30 177 63 l34 23 66 -67 c55 -56 76 -70 124
-84 88 -25 101 -20 105 40 4 61 26 89 63 81 19 -3 37 3 60 20 37 27 73 27 116
-2 l24 -15 -32 -27 c-59 -50 -123 -112 -115 -112 11 0 156 132 156 141 0 14
-46 40 -81 45 -26 4 -43 0 -70 -19 -25 -17 -45 -23 -63 -20 -42 8 -66 -20 -66
-79 0 -52 -3 -54 -70 -48 -52 4 -137 65 -185 133 l-20 27 -83 -42 c-98 -50
-157 -55 -235 -20 -43 19 -47 24 -41 47 10 41 -3 71 -37 85 -17 7 -53 35 -81
62 -27 26 -52 48 -56 47 -4 0 -24 -11 -44 -25z"/>
<path d="M3151 4979 c-13 -16 -39 -36 -58 -44 -29 -12 -33 -19 -33 -49 0 -45
18 -47 22 -4 2 24 9 34 23 36 11 2 35 20 52 40 27 30 35 34 42 22 19 -32 47
-57 69 -64 17 -6 22 -15 22 -39 0 -21 3 -28 9 -19 19 31 -2 81 -35 82 -7 0
-24 16 -38 35 -15 19 -32 35 -39 35 -7 0 -23 -14 -36 -31z"/>
<path d="M2160 4851 c0 -5 15 -15 34 -21 19 -6 40 -18 46 -26 7 -7 20 -14 30
-14 22 0 50 -31 50 -56 1 -18 1 -18 11 -1 14 23 -13 67 -41 67 -11 0 -29 9
-40 20 -31 31 -90 51 -90 31z"/>
<path d="M4160 4846 c-14 -7 -45 -24 -70 -37 -36 -20 -46 -30 -48 -54 l-2 -30
14 33 c8 17 21 32 28 32 18 0 127 53 127 63 1 11 -21 8 -49 -7z"/>
<path d="M2194 4745 c92 -89 97 -96 91 -126 -4 -19 -2 -41 5 -54 11 -20 10
-27 -9 -51 -26 -33 -27 -64 -1 -97 23 -29 25 -48 8 -93 -41 -113 190 -167 772
-181 464 -10 888 31 998 99 26 16 32 26 32 53 0 19 -5 37 -11 41 -7 4 -8 22
-4 48 3 22 6 60 6 84 0 23 0 54 0 70 0 15 -1 46 -1 68 0 27 7 51 21 68 11 14
15 26 9 26 -6 0 -19 -13 -28 -30 -19 -34 -27 -35 -102 -15 -74 20 -190 40
-335 60 -66 9 -149 20 -185 25 -122 17 -352 22 -475 11 -163 -16 -469 -58
-585 -81 l-95 -18 -55 54 c-83 80 -142 134 -149 134 -3 0 39 -43 93 -95z
m1364 -35 c195 -28 451 -76 485 -89 21 -8 27 -17 27 -41 0 -16 -5 -30 -11 -30
-6 0 -54 11 -107 24 -96 24 -187 40 -417 73 -187 27 -548 25 -780 -5 -193 -25
-311 -45 -389 -68 -67 -19 -68 -19 -64 22 3 35 6 38 53 51 28 7 73 15 100 17
28 3 104 13 170 24 66 12 165 25 220 31 55 6 116 13 135 15 100 10 443 -4 578
-24z m-198 -64 c52 -3 142 -12 200 -21 58 -8 112 -15 120 -15 8 -1 1 -7 -17
-15 -55 -24 -70 -81 -32 -129 41 -52 129 -16 129 54 0 19 -9 40 -25 55 -13 14
-20 25 -16 25 20 0 274 -50 279 -55 3 -2 -2 -13 -11 -23 -10 -10 -17 -34 -17
-53 0 -48 24 -79 61 -79 16 0 29 -5 29 -11 0 -8 -11 -9 -32 -5 -271 56 -454
71 -833 70 -311 -1 -447 -8 -660 -36 -117 -16 -72 -23 54 -9 174 20 332 26
636 25 341 0 542 -14 699 -49 118 -27 156 -45 156 -75 0 -24 -8 -25 -35 -6
-53 37 -308 71 -636 86 -453 20 -909 -15 -1074 -84 l-35 -15 0 28 c0 30 18 42
83 57 29 7 47 24 25 24 -7 0 -30 -5 -51 -11 -52 -14 -57 -5 -10 17 34 17 38
23 41 61 3 35 -2 48 -22 68 l-25 25 37 9 c35 9 270 51 287 51 4 0 -4 -11 -19
-25 -51 -47 -17 -135 52 -135 73 0 98 103 35 146 l-31 21 101 13 c190 24 341
29 557 16z m220 -295 c41 -3 -136 -6 -395 -6 -258 0 -443 3 -410 6 81 8 711 8
805 0z m-897 -18 c-13 -2 -35 -2 -50 0 -16 2 -5 4 22 4 28 0 40 -2 28 -4z
m1165 -7 c52 -8 97 -17 100 -21 4 -4 -8 -4 -27 0 -18 4 -83 13 -145 20 -63 7
-91 13 -66 14 25 0 87 -5 138 -13z m-1249 0 c-2 -2 -35 -6 -74 -9 -42 -3 -58
-2 -40 3 30 8 122 13 114 6z m1447 -57 c3 -6 1 -16 -6 -22 -10 -9 -12 -8 -7 5
3 9 1 19 -6 22 -9 3 -9 5 0 5 6 1 15 -4 19 -10z m-1719 -21 c-3 -8 -6 -5 -6 6
-1 11 2 17 5 13 3 -3 4 -12 1 -19z m888 -79 c322 -2 345 -3 215 -11 -153 -9
-556 -2 -675 12 l-70 9 85 -5 c47 -2 247 -5 445 -5z m458 4 c-7 -2 -21 -2 -30
0 -10 3 -4 5 12 5 17 0 24 -2 18 -5z"/>
<path d="M3154 4628 c-48 -23 -57 -92 -18 -132 71 -71 184 4 148 99 -14 36
-86 55 -130 33z"/>
<path d="M3676 4814 c-35 -31 -27 -44 10 -15 l28 22 19 -31 c17 -27 37 -40 37
-24 0 9 -52 74 -59 74 -3 0 -19 -12 -35 -26z"/>
<path d="M2625 4800 c-16 -16 -26 -33 -22 -36 3 -3 17 6 30 22 23 26 25 27 48
11 26 -19 39 -21 39 -9 0 5 -12 15 -27 23 -16 7 -30 15 -33 16 -3 2 -19 -10
-35 -27z"/>
<path d="M3463 4051 c-23 -16 -53 -45 -68 -65 -23 -31 -30 -34 -51 -25 -62 23
-157 -5 -241 -71 -17 -13 -41 -20 -70 -20 -79 0 -153 -58 -153 -119 0 -12 -11
-43 -24 -69 -55 -108 -72 -246 -42 -344 18 -60 68 -132 118 -168 l41 -30 -319
-2 -319 -3 -3 -124 c-2 -79 -7 -130 -15 -140 -9 -12 -9 -13 1 -7 9 6 12 -59
12 -313 0 -188 4 -322 9 -326 6 -3 41 15 78 39 105 68 230 103 271 77 11 -6 7
-19 -17 -62 -107 -190 -64 -366 102 -419 40 -13 42 -21 12 -80 -58 -113 -241
-135 -310 -37 -21 30 -19 44 10 51 45 11 45 87 0 108 -13 6 -40 7 -60 4 -47
-9 -75 -53 -75 -119 0 -58 17 -102 59 -150 l32 -36 -23 -5 c-13 -3 -36 -7 -53
-10 -16 -2 -2 -2 32 0 45 2 66 -1 77 -11 8 -8 21 -15 28 -15 8 0 23 -6 33 -14
18 -13 16 -15 -25 -20 -89 -11 -96 -13 -57 -15 21 0 58 4 82 10 58 15 93 7 47
-11 -48 -18 -33 -23 18 -5 23 8 62 15 87 15 24 0 72 10 106 21 34 12 78 22 97
22 21 0 26 2 13 4 -24 5 -32 22 -10 24 6 1 30 2 52 2 35 0 36 1 8 4 -18 2 -33
7 -33 9 0 15 62 65 77 62 23 -4 29 -28 6 -29 -15 0 -14 -2 5 -9 26 -11 29 -37
5 -43 -15 -4 -16 -5 -2 -6 17 -1 35 -62 24 -80 -3 -6 -1 -12 5 -16 21 -13 10
-24 -15 -15 -13 5 -64 12 -113 16 -96 7 -175 -5 -322 -52 -98 -30 -360 -56
-360 -35 0 5 -38 87 -84 182 -314 652 -393 824 -388 833 3 5 11 -2 18 -15 7
-13 13 -19 14 -13 0 19 -26 48 -34 36 -4 -7 -16 -12 -27 -12 -10 0 -19 -3 -19
-7 0 -3 63 -139 139 -302 76 -163 151 -323 166 -355 15 -33 53 -114 84 -180
32 -67 68 -145 81 -174 l24 -54 121 6 c108 6 669 26 721 26 19 0 23 -12 43
-107 11 -60 21 -118 21 -129 0 -36 -132 -134 -181 -134 -64 0 -59 68 6 96 39
16 45 38 15 54 -60 32 -140 -47 -140 -137 0 -47 4 -56 36 -89 35 -34 40 -36
91 -32 36 3 77 17 125 42 39 20 72 35 75 33 3 -4 62 -338 63 -356 0 -11 -470
131 -615 186 -184 69 -453 195 -506 236 -14 10 -17 39 -21 162 -4 142 -6 155
-37 232 -24 58 -45 93 -73 119 -32 30 -39 42 -36 65 3 16 1 29 -4 29 -24 0
-70 -196 -71 -301 0 -60 24 -122 66 -167 l21 -23 -21 8 c-60 22 -265 242 -314
336 -31 58 -14 102 60 160 32 26 66 62 75 81 22 46 39 242 27 297 -10 43 -31
76 -31 48 0 -8 -31 -34 -70 -57 -38 -24 -81 -57 -94 -73 -23 -27 -25 -28 -31
-9 -10 31 -75 21 -75 -11 0 -16 33 -39 49 -34 15 5 17 -4 13 -82 -2 -55 2
-114 12 -158 8 -38 13 -71 11 -73 -4 -4 -56 130 -89 229 -27 82 -63 250 -68
319 l-3 44 42 7 c59 11 116 43 151 85 33 40 56 98 98 244 29 102 53 160 66
160 4 0 8 4 8 9 0 12 -96 -11 -136 -32 -18 -9 -55 -39 -83 -67 -46 -46 -52
-49 -75 -38 -47 21 -78 -35 -36 -65 19 -13 19 -17 7 -88 -8 -41 -21 -87 -30
-104 -16 -30 -16 -30 -16 50 -1 90 22 314 39 390 12 56 -2 48 178 106 141 46
285 151 322 236 14 32 25 43 49 48 17 4 31 11 31 16 0 26 -257 -11 -342 -49
-58 -25 -111 -82 -160 -170 -22 -40 -42 -71 -45 -68 -7 7 64 181 120 291 50
97 51 98 59 68 9 -35 24 -44 56 -32 26 10 29 41 5 60 -14 13 -13 15 13 19 16
3 88 7 159 8 163 3 222 15 282 55 50 34 110 108 99 125 -3 5 -72 9 -168 8
-156 -2 -166 -3 -228 -31 -36 -16 -85 -42 -109 -57 -24 -16 -45 -27 -47 -26
-1 2 25 36 59 77 103 121 114 139 49 76 -43 -42 -62 -54 -62 -42 0 10 15 32
34 50 64 60 86 103 86 171 0 95 -17 222 -35 256 -16 31 -35 40 -35 16 0 -8
-24 -33 -54 -57 -84 -68 -106 -108 -106 -195 0 -57 8 -94 39 -184 l39 -113
-53 -81 c-29 -45 -70 -112 -91 -151 -43 -81 -43 -80 -49 -74 -2 3 5 41 15 84
11 44 20 97 20 118 0 41 2 42 30 25 25 -16 54 -1 58 30 5 32 -33 48 -64 27
-22 -14 -24 -14 -24 1 0 9 -14 43 -32 76 -47 88 -115 138 -116 86 0 -13 -12
-51 -26 -85 -55 -133 -20 -319 81 -427 27 -30 28 -35 6 -80 l-16 -35 -28 30
c-35 37 -63 37 -101 -1 -24 -25 -29 -36 -24 -58 13 -52 81 -82 115 -49 16 14
16 19 -23 -148 -14 -60 -26 -118 -26 -127 0 -10 -4 -18 -9 -18 -15 0 -18 34
-10 96 11 74 4 108 -33 163 -50 75 -141 172 -181 192 l-37 19 0 -27 c0 -16 -7
-53 -15 -83 -8 -30 -15 -72 -15 -93 0 -80 73 -171 213 -265 76 -52 77 -53 76
-95 -1 -23 -4 -53 -8 -67 -7 -24 -8 -24 -14 -4 -7 20 -46 45 -70 43 -7 0 -2
-4 11 -9 12 -5 22 -16 22 -24 0 -18 -36 -40 -50 -31 -6 4 -14 -4 -19 -17 -8
-22 -9 -21 -19 12 l-10 35 -1 -32 c-2 -68 75 -98 124 -48 14 13 25 21 26 17 0
-4 2 -43 5 -87 4 -82 21 -224 30 -253 14 -45 -28 41 -47 96 -40 118 -194 244
-314 257 -38 4 -44 3 -28 -4 14 -7 40 -47 74 -118 28 -59 63 -133 77 -163 51
-105 162 -190 248 -190 18 0 26 -11 43 -62 25 -74 25 -78 6 -78 -11 0 -14 7
-11 25 6 32 -28 59 -56 44 -41 -22 -13 -72 47 -81 23 -4 33 -37 13 -49 -7 -5
-23 -9 -35 -9 -13 0 -23 -6 -23 -14 0 -11 -8 -12 -37 -5 -52 12 -124 11 -162
-2 -35 -12 -39 -24 -12 -38 10 -6 36 -41 59 -78 35 -60 49 -74 122 -117 113
-68 167 -85 274 -86 l88 0 72 -69 c91 -87 229 -192 339 -256 47 -27 86 -53 87
-56 0 -11 -72 9 -153 41 -139 55 -313 33 -423 -55 l-28 -22 40 -1 c21 0 93
-17 159 -37 176 -54 241 -66 293 -54 56 12 118 44 147 75 l23 24 98 -46 c191
-89 463 -183 724 -250 58 -14 109 -30 113 -34 4 -3 -30 -17 -75 -29 -287 -77
-548 -170 -662 -235 l-60 -34 52 -26 c28 -14 60 -26 71 -26 11 0 71 28 133 63
62 35 163 86 223 114 118 55 330 127 350 119 6 -2 27 -41 45 -86 38 -91 43
-89 55 24 4 37 13 70 19 72 26 10 419 -137 471 -176 6 -4 60 -35 121 -67 l111
-60 62 25 c33 14 61 29 61 33 0 4 -46 30 -102 58 -112 55 -353 139 -546 191
-67 18 -119 36 -115 40 4 4 49 17 98 29 50 13 140 37 200 56 81 24 137 34 215
39 104 5 107 5 164 -25 32 -17 60 -28 64 -25 3 4 -10 22 -29 42 l-34 36 30 -5
c77 -15 135 -18 135 -9 0 6 -14 22 -31 36 -17 14 -25 26 -18 26 34 0 152 -44
179 -67 17 -14 33 -23 36 -21 11 12 -17 58 -57 92 l-43 36 40 0 c56 0 196 -36
236 -60 37 -22 58 -26 58 -9 0 23 -75 103 -124 133 l-49 31 78 8 c58 7 102 5
172 -7 52 -9 106 -16 121 -16 26 1 27 1 7 16 -35 28 -155 82 -196 89 -21 4
-39 11 -39 16 0 14 225 10 303 -5 68 -13 84 -7 50 21 -32 25 -107 60 -167 79
l-60 19 40 7 c65 11 240 11 262 -1 34 -18 47 -13 26 10 -35 39 -95 62 -179 68
-78 6 -79 7 -45 19 79 27 204 34 305 17 l40 -6 -30 26 c-47 41 -84 57 -146 62
-32 3 -57 9 -54 13 2 4 45 24 95 45 83 35 96 37 160 33 82 -6 87 4 19 40 -37
20 -54 23 -104 19 -33 -3 -71 -8 -85 -12 -21 -5 -18 0 20 35 93 86 181 130
259 130 55 0 70 15 35 33 -53 27 -113 30 -176 8 -76 -26 -76 -10 -2 56 75 68
145 105 224 119 l65 11 -35 22 c-29 18 -44 21 -88 16 -30 -3 -71 -14 -92 -25
-22 -11 -42 -20 -45 -20 -10 0 75 116 112 154 35 35 78 55 162 76 53 14 44 26
-28 40 -70 13 -120 0 -171 -46 -21 -19 -41 -31 -44 -26 -10 16 61 146 106 193
23 25 73 63 110 84 37 21 65 42 62 47 -8 13 -76 9 -129 -6 -29 -9 -64 -30 -87
-53 -43 -42 -46 -38 -19 40 25 72 81 157 127 192 19 14 32 30 29 36 -3 5 0 6
7 4 15 -6 65 41 55 51 -13 13 -111 -20 -165 -56 -31 -21 -58 -37 -60 -35 -6 6
39 140 70 210 18 39 50 92 71 118 22 26 38 50 36 52 -3 2 -31 -11 -64 -28 -51
-27 -66 -42 -100 -99 -22 -37 -44 -67 -48 -68 -5 0 -6 3 -3 8 2 4 12 82 20
172 9 91 23 194 32 229 8 35 12 66 9 69 -21 21 -119 -153 -131 -234 -3 -24
-10 -44 -16 -44 -23 0 13 372 48 482 2 9 1 19 -4 22 -17 11 -91 -117 -120
-208 l-17 -51 -3 50 c-2 28 1 100 7 161 14 136 14 164 1 164 -16 0 -56 -71
-80 -145 -12 -38 -26 -74 -30 -78 -12 -13 -30 86 -30 161 1 62 6 98 24 177 l8
30 -31 -33 c-20 -21 -38 -58 -53 -107 -12 -41 -25 -75 -29 -75 -18 0 -44 141
-44 237 0 86 -2 100 -14 90 -24 -20 -41 -74 -41 -129 0 -67 -11 -55 -45 47
-23 67 -26 91 -21 144 4 45 2 61 -5 54 -17 -17 -41 -125 -35 -157 l6 -30 -26
25 c-41 37 -74 116 -74 177 0 28 -4 52 -9 52 -13 0 -41 -76 -41 -111 0 -17 -3
-29 -7 -27 -5 2 -51 24 -103 51 -92 46 -205 77 -273 77 -31 -1 -31 -1 -12 -16
11 -8 48 -29 83 -47 66 -33 172 -111 172 -126 0 -4 -22 -6 -49 -3 -35 3 -61
-1 -95 -16 -25 -12 -46 -25 -46 -29 0 -4 37 -8 83 -9 57 -1 95 -7 125 -20 l44
-19 -89 0 c-78 0 -93 -3 -135 -28 -58 -33 -62 -48 -10 -36 59 14 174 10 233
-7 75 -22 82 -34 16 -27 -40 4 -69 1 -99 -11 -43 -16 -126 -81 -116 -91 3 -3
25 2 49 11 28 11 77 17 134 18 74 1 102 -4 155 -24 l65 -25 -40 -3 c-78 -5
-143 -23 -189 -52 -56 -36 -60 -51 -8 -39 20 5 76 9 124 9 78 0 92 -3 149 -32
62 -33 95 -68 50 -53 -73 23 -183 -9 -214 -64 -21 -36 -18 -36 43 -15 54 19
112 14 191 -15 61 -23 157 -98 109 -86 -14 4 -51 9 -82 12 -49 5 -64 2 -101
-20 -24 -14 -49 -33 -56 -41 -11 -13 -8 -14 26 -10 21 3 46 7 55 9 27 5 130
-20 173 -42 34 -18 85 -58 85 -66 0 -2 -41 -1 -90 1 -84 4 -93 3 -130 -22 -22
-14 -40 -29 -40 -31 0 -3 24 -2 53 1 77 9 157 -16 213 -68 24 -22 42 -44 39
-48 -3 -4 -21 -4 -40 0 -66 15 -140 -5 -179 -49 l-19 -21 79 0 c58 -1 94 -7
134 -23 48 -19 59 -29 83 -75 16 -29 27 -56 24 -58 -3 -3 -20 2 -39 12 -44 23
-176 31 -217 13 -17 -8 -31 -17 -31 -20 0 -3 25 -9 56 -12 112 -11 197 -81
211 -172 l6 -40 -24 21 c-13 12 -34 27 -46 33 -29 15 -141 13 -178 -3 l-30
-13 30 -7 c117 -28 173 -73 210 -169 33 -88 32 -98 -6 -59 -50 51 -121 77
-178 66 -17 -4 -31 -9 -31 -13 0 -3 18 -16 40 -29 84 -48 137 -112 161 -194
10 -36 -2 -36 -29 2 -35 46 -96 73 -151 66 -25 -3 -49 -10 -53 -14 -5 -5 17
-22 49 -38 36 -19 67 -44 85 -69 31 -45 50 -125 41 -178 l-5 -36 -22 42 c-13
23 -41 55 -62 70 -34 23 -49 28 -90 25 l-49 -3 44 -25 c64 -36 86 -84 86 -182
-1 -83 -18 -123 -30 -70 -9 44 -86 112 -126 112 l-31 0 24 -29 c33 -38 50
-103 46 -171 l-3 -55 -34 53 c-34 53 -73 82 -110 82 -19 0 -18 -3 10 -48 34
-56 44 -103 35 -166 -7 -42 -26 -66 -26 -31 0 42 -69 145 -97 145 -11 0 -11
-5 0 -27 24 -47 27 -113 10 -185 -9 -38 -20 -68 -25 -68 -4 0 -8 20 -8 45 0
47 -26 111 -55 135 -23 19 -27 8 -13 -43 10 -39 9 -56 -10 -132 -31 -122 -39
-130 -38 -38 1 61 -3 84 -18 105 -26 40 -40 35 -32 -11 8 -53 -9 -136 -40
-189 -14 -24 -28 -42 -30 -40 -2 3 1 33 7 67 9 47 9 73 0 102 -16 52 -31 49
-31 -5 0 -50 -31 -139 -61 -176 -17 -20 -20 -21 -14 -5 20 56 17 145 -4 145
-4 0 -11 -21 -15 -47 -4 -34 -21 -70 -58 -125 -29 -43 -54 -76 -55 -74 -2 2 3
32 12 67 16 71 19 109 7 109 -4 0 -13 -19 -19 -42 -12 -44 -72 -162 -79 -155
-2 2 1 30 6 63 6 32 10 68 9 79 0 23 4 31 -62 -120 -22 -49 -51 -103 -65 -118
-41 -43 -132 -83 -301 -133 -86 -24 -164 -47 -173 -50 -17 -5 -18 13 -18 276
l0 281 56 72 c31 39 65 88 75 109 l19 38 73 -1 c39 0 197 -8 350 -17 154 -9
283 -15 287 -12 8 5 56 102 262 535 55 116 134 279 174 364 41 84 74 157 74
162 0 5 -9 9 -20 9 -14 0 -20 7 -21 23 0 12 -37 -51 -85 -148 -46 -93 -83
-165 -81 -159 7 35 162 352 169 348 4 -3 8 11 8 30 0 19 -5 38 -12 42 -7 5 -8
3 -3 -6 10 -16 -65 -171 -78 -163 -6 3 -7 1 -3 -6 4 -6 -21 -72 -55 -146 -35
-74 -66 -130 -69 -124 -5 7 -9 5 -13 -6 -4 -9 -3 -13 3 -10 13 8 13 2 -1 -29
-7 -14 -16 -23 -20 -20 -5 3 -6 -1 -4 -9 3 -7 -1 -27 -10 -43 -9 -18 -15 -23
-15 -12 0 9 5 20 10 23 6 3 10 11 10 18 0 13 -23 -19 -33 -46 -5 -12 -3 -16 4
-11 7 4 10 1 7 -7 -3 -8 -10 -13 -16 -12 -7 2 -9 -4 -5 -14 5 -12 3 -14 -7 -8
-9 5 -11 4 -6 -4 10 -16 -3 -53 -16 -45 -6 4 -8 2 -4 -4 8 -13 -24 -83 -36
-76 -4 3 -9 -1 -9 -8 -1 -7 -2 -17 -4 -23 -1 -5 -3 -18 -3 -28 -1 -10 -6 -15
-12 -12 -6 4 -7 -1 -3 -11 5 -13 3 -15 -7 -9 -9 5 -11 4 -6 -3 4 -7 2 -20 -4
-29 -11 -17 -11 -17 -6 0 8 27 -2 20 -19 -13 -19 -37 -19 -49 0 -24 14 18 15
18 6 -6 -5 -14 -14 -24 -21 -22 -6 1 -9 -2 -5 -8 15 -24 -6 -49 -43 -53 l-37
-4 38 -1 c23 -1 36 -6 32 -12 -3 -5 -4 -10 -1 -10 3 0 22 36 43 80 20 44 39
78 41 76 2 -2 -18 -49 -44 -104 -43 -93 -49 -101 -78 -105 -29 -4 -28 -4 7 -5
22 -1 37 3 37 10 0 6 3 9 6 5 3 -3 -2 -24 -12 -46 -13 -29 -24 -41 -38 -41
-83 0 -264 25 -331 45 -115 35 -204 55 -248 55 -31 0 -38 3 -35 18 4 19 52 23
118 9 26 -5 30 -5 15 3 -15 7 -3 9 45 6 36 -2 76 -7 90 -10 21 -5 22 -5 5 3
-16 7 -17 10 -5 14 36 13 47 13 89 0 24 -7 65 -12 90 -12 41 1 38 3 -21 9 -37
5 -72 11 -78 15 -21 13 59 55 108 57 l47 1 -42 4 -42 4 32 51 32 51 3 613 3
614 -25 48 c-48 95 -120 144 -230 157 -55 7 -59 9 -73 44 -27 65 -128 151
-178 151 -19 0 -19 1 10 93 54 170 17 295 -94 313 l-38 6 21 41 c23 47 27 124
6 137 -9 6 9 19 57 43 70 36 133 81 133 97 0 5 -26 -7 -57 -26 -31 -19 -66
-34 -76 -34 -18 0 -18 1 -3 23 23 31 37 57 33 57 -2 0 -22 -13 -44 -29z m-247
-159 c-18 -16 -18 -16 -6 6 6 13 14 21 18 18 3 -4 -2 -14 -12 -24z m1075 1
c13 -17 13 -17 -6 -3 -11 8 -22 16 -24 17 -2 2 0 3 6 3 6 0 17 -8 24 -17z
m-2504 -15 c-3 -8 -6 -5 -6 6 -1 11 2 17 5 13 3 -3 4 -12 1 -19z m-25 0 c-17
-17 -15 -29 3 -22 8 4 15 1 15 -6 0 -6 5 -8 10 -5 6 4 10 -7 9 -27 -1 -21 -3
-26 -6 -13 -3 11 -10 26 -16 33 -9 11 -14 10 -25 -5 -14 -17 -14 -17 -8 1 5
14 3 17 -11 12 -13 -5 -11 0 6 18 14 15 27 26 30 26 3 0 0 -5 -7 -12z m1395 6
c-3 -3 -12 -4 -19 -1 -8 3 -5 6 6 6 11 1 17 -2 13 -5z m1225 -14 c21 -13 27
-20 16 -20 -9 0 -20 5 -23 11 -4 6 -17 14 -29 19 -11 5 -15 9 -9 9 7 1 27 -8
45 -19z m-1232 -17 c-1 -15 -27 -43 -41 -43 -8 0 -4 7 9 16 12 8 20 20 17 25
-4 5 -1 9 4 9 6 0 11 -3 11 -7z m220 -10 c0 -15 2 -16 10 -3 14 23 18 8 5 -18
l-13 -23 -6 26 c-5 21 -12 26 -26 22 -11 -3 -18 -1 -14 4 10 16 44 10 44 -8z
m27 -45 c-3 -8 -6 -5 -6 6 -1 11 2 17 5 13 3 -3 4 -12 1 -19z m1088 12 c3 -6
-1 -7 -9 -4 -18 7 -21 14 -7 14 6 0 13 -4 16 -10z m-1347 -20 c-7 -10 -14 -17
-17 -15 -4 4 18 35 25 35 2 0 -1 -9 -8 -20z m-1463 -66 l3 -59 -12 50 c-7 28
-10 56 -8 63 8 23 13 6 17 -54z m76 43 c-10 -9 -11 -8 -5 6 3 10 9 15 12 12 3
-3 0 -11 -7 -18z m1616 1 c-3 -8 -6 -5 -6 6 -1 11 2 17 5 13 3 -3 4 -12 1 -19z
m-127 8 c0 -3 -4 -8 -10 -11 -5 -3 -10 -1 -10 4 0 6 5 11 10 11 6 0 10 -2 10
-4z m35 -6 c-3 -5 -12 -10 -18 -10 -7 0 -6 4 3 10 19 12 23 12 15 0z m1162
-10 c14 -11 21 -20 15 -20 -6 0 -17 6 -24 13 -7 8 -20 16 -28 20 -11 4 -11 6
-2 6 8 1 25 -8 39 -19z m-1244 -5 c-3 -9 -8 -14 -10 -11 -3 3 -2 9 2 15 9 16
15 13 8 -4z m1325 -2 c-12 -15 -22 -18 -14 -4 4 5 0 11 -6 14 -7 3 -3 4 9 4
17 -1 19 -4 11 -14z m74 -25 c-21 -21 -13 -32 11 -12 l22 19 -20 -23 c-18 -21
-20 -22 -31 -7 -7 9 -10 23 -7 31 8 20 -14 17 -26 -3 -9 -15 -10 -16 -11 -2 0
24 41 40 60 23 11 -11 12 -16 2 -26z m72 -25 c-4 -19 -3 -24 4 -14 7 10 10 7
10 -13 0 -14 -4 -23 -9 -21 -4 3 -10 -3 -12 -12 -2 -10 -3 -6 -1 9 3 25 -17
44 -39 39 -5 -1 -6 3 -2 9 5 8 11 8 20 0 10 -8 15 -6 20 9 9 31 16 26 9 -6z
m-1752 -15 c-8 -8 -9 -4 -5 13 4 13 8 18 11 10 2 -7 -1 -18 -6 -23z m1589 15
c11 -15 11 -16 0 -6 -7 6 -21 9 -30 6 -14 -4 -14 -3 -1 6 8 6 16 11 16 11 1 0
8 -8 15 -17z m-2864 -25 c-3 -7 -5 -2 -5 12 0 14 2 19 5 13 2 -7 2 -19 0 -25z
m1457 17 c-4 -8 -10 -15 -15 -15 -4 0 -6 7 -3 15 4 8 10 15 15 15 4 0 6 -7 3
-15z m1396 -13 c0 -13 -12 -22 -22 -16 -10 6 -1 24 13 24 5 0 9 -4 9 -8z m-77
-39 c-7 -2 -19 -2 -25 0 -7 3 -2 5 12 5 14 0 19 -2 13 -5z m62 -3 c3 -6 -1 -7
-9 -4 -18 7 -21 14 -7 14 6 0 13 -4 16 -10z m-1602 -113 c-6 -112 6 -183 47
-284 14 -33 -4 -29 -39 9 -66 71 -81 257 -28 366 20 43 25 21 20 -91z m-1060
56 c-3 -7 -6 -13 -8 -13 -2 0 -5 6 -8 13 -3 8 1 14 8 14 7 0 11 -6 8 -14z
m1335 0 c-6 -7 -19 -13 -30 -13 -16 0 -18 3 -10 13 6 7 20 13 31 13 15 0 17
-3 9 -13z m-1478 -38 c0 -5 -5 -3 -10 5 -5 8 -10 20 -10 25 0 6 5 3 10 -5 5
-8 10 -19 10 -25z m114 19 c3 -8 2 -12 -4 -9 -6 3 -10 10 -10 16 0 14 7 11 14
-7z m-59 -54 c-3 -5 -14 -10 -23 -9 -14 0 -13 2 3 9 27 11 27 11 20 0z m1370
-20 c-3 -5 -12 -10 -18 -10 -7 0 -6 4 3 10 19 12 23 12 15 0z m-1668 -22 c-3
-8 -6 -5 -6 6 -1 11 2 17 5 13 3 -3 4 -12 1 -19z m3457 -20 c7 -5 7 -11 -3
-20 -10 -10 -12 -10 -7 0 4 7 1 12 -7 12 -11 0 -13 7 -9 22 4 16 7 18 10 8 3
-8 10 -18 16 -22z m-3424 12 c5 9 9 9 14 1 4 -6 2 -11 -4 -11 -6 0 -8 -5 -4
-12 5 -9 2 -9 -9 1 -9 7 -17 19 -16 25 0 6 3 5 6 -3 4 -10 7 -10 13 -1z m3277
-22 c-3 -7 -5 -2 -5 12 0 14 2 19 5 13 2 -7 2 -19 0 -25z m293 -13 c5 3 4 -12
-1 -32 -16 -60 -17 -61 -15 -6 0 29 3 48 4 43 2 -6 7 -8 12 -5z m-415 -4 c18
-7 17 -8 -5 -14 -14 -3 -41 -2 -60 3 -33 9 -32 9 10 5 32 -4 41 -2 30 5 -17
11 -4 12 25 1z m-3157 -32 c-3 -8 -7 -3 -11 10 -4 17 -3 21 5 13 5 -5 8 -16 6
-23z m615 24 c-7 -2 -19 -2 -25 0 -7 3 -2 5 12 5 14 0 19 -2 13 -5z m54 1 c-3
-3 -12 -4 -19 -1 -8 3 -5 6 6 6 11 1 17 -2 13 -5z m55 -36 c-6 -13 -11 -18
-11 -12 -1 6 -11 10 -23 9 -13 -1 -15 0 -6 2 9 2 20 13 24 25 4 14 9 17 17 9
7 -7 7 -17 -1 -33z m2715 10 c-3 -7 -5 -2 -5 12 0 14 2 19 5 13 2 -7 2 -19 0
-25z m-3057 -2 c0 -2 -7 -7 -16 -10 -8 -3 -12 -2 -9 4 6 10 25 14 25 6z m1190
0 c0 -3 -4 -8 -10 -11 -5 -3 -10 -1 -10 4 0 6 5 11 10 11 6 0 10 -2 10 -4z
m1654 -22 c3 -8 2 -12 -4 -9 -6 3 -10 10 -10 16 0 14 7 11 14 -7z m83 -8 c3
-3 -5 -6 -20 -6 -14 0 -28 4 -31 9 -7 10 41 8 51 -3z m-2653 -5 c4 -5 -3 -7
-14 -4 -23 6 -26 13 -6 13 8 0 17 -4 20 -9z m-84 -33 c0 -13 -23 -5 -28 10 -2
7 2 10 12 6 9 -3 16 -11 16 -16z m53 15 c-7 -2 -19 -2 -25 0 -7 3 -2 5 12 5
14 0 19 -2 13 -5z m907 -28 c0 -5 -5 -3 -10 5 -5 8 -10 20 -10 25 0 6 5 3 10
-5 5 -8 10 -19 10 -25z m-1250 4 c0 -5 -4 -9 -8 -9 -5 0 -9 7 -9 15 0 8 4 12
9 9 4 -3 8 -9 8 -15z m360 1 c-8 -5 -22 -9 -30 -9 -10 0 -8 3 5 9 27 12 43 12
25 0z m863 -10 c3 -11 1 -20 -4 -20 -5 0 -9 9 -9 20 0 11 2 20 4 20 2 0 6 -9
9 -20z m-1256 -15 c0 -8 -4 -15 -9 -15 -10 0 -11 14 -1 23 9 10 10 9 10 -8z
m3148 5 c3 -5 1 -10 -4 -10 -6 0 -11 5 -11 10 0 6 2 10 4 10 3 0 8 -4 11 -10z
m-1345 -10 c0 -5 -4 -10 -10 -10 -5 0 -10 5 -10 10 0 6 5 10 10 10 6 0 10 -4
10 -10z m1287 -12 c-3 -8 -6 -5 -6 6 -1 11 2 17 5 13 3 -3 4 -12 1 -19z m193
12 c0 -5 -5 -10 -11 -10 -5 0 -7 5 -4 10 3 6 8 10 11 10 2 0 4 -4 4 -10z m30
0 c0 -5 -4 -10 -10 -10 -5 0 -10 5 -10 10 0 6 5 10 10 10 6 0 10 -4 10 -10z
m128 -15 c-3 -3 -9 2 -12 12 -6 14 -5 15 5 6 7 -7 10 -15 7 -18z m-1504 -44
c-4 -3 -9 0 -11 7 -8 22 -25 13 -17 -10 3 -13 3 -20 -1 -16 -4 4 -9 21 -11 37
l-4 30 25 -21 c14 -12 22 -24 19 -27z m1017 32 c13 -16 12 -17 -3 -4 -17 13
-22 21 -14 21 2 0 10 -8 17 -17z m476 -25 c-3 -8 -6 -5 -6 6 -1 11 2 17 5 13
3 -3 4 -12 1 -19z m-2187 -22 c0 -3 -4 -8 -10 -11 -5 -3 -10 -1 -10 4 0 6 5
11 10 11 6 0 10 -2 10 -4z m707 -11 c0 -8 -4 -15 -9 -15 -10 0 -11 14 -1 23 9
10 10 9 10 -8z m1140 1 c0 -8 -6 -12 -15 -9 -11 5 -11 7 0 14 7 5 13 9 14 9 0
0 1 -6 1 -14z m84 1 c-6 -8 -8 -17 -4 -21 4 -4 -1 -4 -12 0 -18 7 -19 6 -5
-12 14 -19 14 -19 -7 0 -23 19 -22 39 1 30 8 -3 17 -1 21 5 3 6 9 11 12 11 3
0 0 -6 -6 -13z m-3472 -39 c1 -5 -5 -8 -13 -8 -9 0 -12 8 -8 27 5 25 6 25 13
8 4 -11 8 -23 8 -27z m21 27 c0 -8 -2 -15 -4 -15 -2 0 -6 7 -10 15 -3 8 -1 15
4 15 6 0 10 -7 10 -15z m2125 -25 c-27 -4 -52 -6 -54 -4 -2 2 1 4 8 4 7 0 10
3 8 8 -3 4 16 5 41 3 l47 -5 -50 -6z m-2119 -29 c11 9 14 8 14 -5 0 -9 -6 -15
-12 -13 -8 1 -12 -7 -11 -18 1 -19 1 -19 -12 -2 -8 11 -11 26 -7 35 4 11 7 12
10 4 3 -10 7 -10 18 -1z m36 -16 c3 -13 1 -22 -3 -19 -9 5 -13 44 -5 44 2 0 6
-11 8 -25z m3608 21 c0 -3 -4 -8 -10 -11 -5 -3 -10 -1 -10 4 0 6 5 11 10 11 6
0 10 -2 10 -4z m13 -26 c-3 -12 -8 -19 -11 -16 -5 6 5 36 12 36 2 0 2 -9 -1
-20z m-2053 -80 l0 -90 -290 0 -289 0 -3 -251 c-2 -189 0 -253 9 -256 7 -3 33
15 57 40 25 24 72 57 103 73 51 25 70 28 148 29 82 0 156 -16 155 -34 -1 -3
-32 -28 -71 -56 -39 -27 -85 -66 -103 -85 -31 -35 -32 -35 -116 -35 -88 -1
-135 -17 -245 -85 l-35 -22 0 139 c0 76 -3 270 -6 431 l-6 292 346 0 346 0 0
-90z m752 79 c96 -21 176 -92 197 -175 7 -28 11 -235 11 -612 0 -616 0 -614
-55 -686 -14 -18 -49 -46 -77 -62 -49 -26 -62 -29 -184 -32 l-131 -4 16 60
c12 49 20 62 39 67 38 9 87 46 113 84 l24 36 3 535 c2 464 1 540 -13 576 -34
89 -139 140 -236 114 -79 -22 -149 -114 -149 -197 0 -19 -42 -60 -89 -88 -25
-14 -10 181 18 239 40 81 101 129 184 146 63 12 269 11 329 -1z m-1941 -33
c-6 -14 -7 -26 -2 -26 5 0 8 -8 6 -17 -3 -18 -18 -19 -45 -2 -11 8 -10 9 7 4
18 -5 22 -2 20 15 -1 14 -9 20 -27 21 -22 1 -22 2 8 10 17 5 32 15 32 21 0 6
2 9 5 6 3 -3 1 -17 -4 -32z m2946 18 c-3 -3 -12 -4 -19 -1 -8 3 -5 6 6 6 11 1
17 -2 13 -5z m460 -16 c-3 -8 -6 -5 -6 6 -1 11 2 17 5 13 3 -3 4 -12 1 -19z
m-3788 -33 c0 -5 -4 -3 -9 5 -5 8 -9 22 -9 30 0 16 17 -16 18 -35z m278 39
c-3 -3 -12 -4 -19 -1 -8 3 -5 6 6 6 11 1 17 -2 13 -5z m140 -16 c-3 -8 -6 -5
-6 6 -1 11 2 17 5 13 3 -3 4 -12 1 -19z m2860 16 c-3 -3 -12 -4 -19 -1 -8 3
-5 6 6 6 11 1 17 -2 13 -5z m103 -4 c-8 -5 -19 -10 -25 -10 -5 0 -3 5 5 10 8
5 20 10 25 10 6 0 3 -5 -5 -10z m-3136 -6 c9 -3 16 -11 16 -17 0 -7 -4 -7 -12
1 -7 7 -19 12 -27 12 -13 0 -13 -2 -3 -9 11 -7 11 -9 -1 -14 -13 -5 -16 5 -8
31 2 4 19 2 35 -4z m3091 -4 c3 -5 1 -10 -4 -10 -6 0 -11 5 -11 10 0 6 2 10 4
10 3 0 8 -4 11 -10z m95 -40 c0 -5 -2 -10 -4 -10 -3 0 -8 5 -11 10 -3 6 -1 10
4 10 6 0 11 -4 11 -10z m208 -21 c-3 -8 -7 -3 -11 10 -4 17 -3 21 5 13 5 -5 8
-16 6 -23z m-3318 11 c0 -5 -2 -10 -4 -10 -3 0 -8 5 -11 10 -3 6 -1 10 4 10 6
0 11 -4 11 -10z m-6 -59 c-6 -6 -11 1 -18 29 l-7 25 15 -25 c8 -14 12 -27 10
-29z m-188 19 c0 -12 -4 -16 -9 -11 -5 5 -6 14 -3 20 10 15 12 14 12 -9z m129
-29 c3 -5 2 -12 -3 -15 -5 -3 -9 1 -9 9 0 17 3 19 12 6z m40 -9 c-3 -3 -11 0
-18 7 -9 10 -8 11 6 5 10 -3 15 -9 12 -12z m3422 -4 c-3 -8 -6 -5 -6 6 -1 11
2 17 5 13 3 -3 4 -12 1 -19z m-1567 2 c0 -5 -2 -10 -4 -10 -3 0 -8 5 -11 10
-3 6 -1 10 4 10 6 0 11 -4 11 -10z m-2242 -8 c22 -14 2 -42 -29 -42 -23 0 -29
-5 -29 -21 0 -11 -4 -17 -10 -14 -14 9 -13 58 2 73 14 14 47 16 66 4z m372 -6
c0 -2 -7 -7 -16 -10 -8 -3 -12 -2 -9 4 6 10 25 14 25 6z m3132 -3 c-6 -2 -10
-9 -7 -14 4 -5 -1 -6 -10 -2 -13 5 -14 7 -3 14 7 5 18 8 23 8 6 0 4 -3 -3 -6z
m63 -11 c-3 -3 -11 0 -18 7 -9 10 -8 11 6 5 10 -3 15 -9 12 -12z m-2002 -77
c-2 -44 -6 -121 -9 -171 l-6 -91 -41 14 c-28 10 -71 14 -127 11 -96 -3 -164
-30 -238 -93 l-42 -37 0 226 0 226 233 -2 232 -3 -2 -80z m542 75 c-3 -5 -10
-10 -16 -10 -5 0 -9 5 -9 10 0 6 7 10 16 10 8 0 12 -4 9 -10z m-85 -61 c-7
-16 -17 -29 -22 -29 -9 0 -5 22 15 70 9 21 11 22 14 7 3 -10 -1 -32 -7 -48z
m-2240 41 c0 -5 -5 -10 -11 -10 -5 0 -7 5 -4 10 3 6 8 10 11 10 2 0 4 -4 4
-10z m3800 6 c0 -2 -8 -10 -17 -17 -16 -13 -17 -12 -4 4 13 16 21 21 21 13z
m260 -7 c0 8 2 12 5 9 3 -3 2 -13 -1 -22 -5 -14 -9 -15 -15 -4 -5 7 -9 18 -9
23 0 6 5 3 10 -5 8 -12 10 -12 10 -1z m-3697 -12 c-2 -4 -3 -12 -3 -18 0 -8
-5 -8 -15 1 -20 17 -19 29 3 26 9 -2 16 -6 15 -9z m3660 -2 c-3 -9 -8 -14 -10
-11 -3 3 -2 9 2 15 9 16 15 13 8 -4z m-4069 -65 c-1 -14 -3 -29 -3 -35 -1 -5
-6 -3 -11 5 -8 13 -10 13 -10 -2 0 -9 5 -20 10 -23 6 -3 10 -11 10 -18 0 -6
-7 -1 -16 11 -10 14 -13 29 -8 40 8 17 9 23 13 72 l3 25 7 -25 c5 -14 7 -36 5
-50z m2616 -464 c0 -363 -3 -520 -12 -548 -12 -40 -71 -101 -107 -111 -16 -4
-19 5 -24 70 -9 114 -66 189 -172 226 l-40 14 -3 236 c-2 232 -2 236 19 248
46 24 139 101 194 161 55 59 103 145 119 212 20 82 26 -34 26 -508z m1260 520
c0 -3 -4 -8 -10 -11 -5 -3 -10 -1 -10 4 0 6 5 11 10 11 6 0 10 -2 10 -4z
m-3762 -31 c-3 -3 -9 2 -12 12 -6 14 -5 15 5 6 7 -7 10 -15 7 -18z m272 2 c0
-7 -4 -6 -10 3 -8 12 -10 12 -10 1 0 -8 -3 -12 -6 -8 -9 9 6 28 17 22 5 -4 9
-12 9 -18z m3502 -9 c-6 -6 -15 -8 -19 -4 -4 4 -1 11 7 16 19 12 27 3 12 -12z
m358 18 c0 -2 -8 -10 -17 -17 -16 -13 -17 -12 -4 4 13 16 21 21 21 13z m-4146
-22 c3 -8 2 -12 -4 -9 -6 3 -10 10 -10 16 0 14 7 11 14 -7z m3958 -6 c-4 -16
-2 -19 8 -13 9 5 11 4 6 -4 -4 -6 -12 -9 -17 -6 -12 8 -12 45 0 45 5 0 7 -10
3 -22z m41 -33 c-3 -9 -8 -14 -10 -11 -3 3 -2 9 2 15 9 16 15 13 8 -4z m114
-32 c-11 -23 -23 -41 -25 -39 -2 2 4 19 13 36 14 27 14 34 4 41 -10 6 -7 8 8
7 l21 -2 -21 -43z m-4033 -23 c-5 -5 -9 4 -10 23 -1 30 -1 30 9 9 6 -14 7 -26
1 -32z m2131 30 c-3 -5 -11 -10 -16 -10 -6 0 -7 5 -4 10 3 6 11 10 16 10 6 0
7 -4 4 -10z m1538 3 c3 -5 -6 -9 -19 -9 -13 -1 -21 2 -18 7 6 11 31 12 37 2z
m-1593 -27 c0 -2 -7 -7 -16 -10 -8 -3 -12 -2 -9 4 6 10 25 14 25 6z m1587 -2
c-3 -3 -12 -4 -19 -1 -8 3 -5 6 6 6 11 1 17 -2 13 -5z m83 -28 c0 -3 -7 -3
-15 0 -8 4 -15 13 -15 21 0 12 2 12 15 -1 8 -8 15 -17 15 -20z m-1480 -8 c0
-6 -6 -5 -15 2 -8 7 -15 14 -15 16 0 2 7 1 15 -2 8 -4 15 -11 15 -16z m1471
-15 c13 -17 13 -17 -6 -3 -11 8 -22 16 -24 17 -2 2 0 3 6 3 6 0 17 -8 24 -17z
m-1774 -28 c0 -8 -4 -15 -9 -15 -4 0 -8 7 -8 15 0 8 4 15 8 15 5 0 9 -7 9 -15z
m-1587 -9 c0 -2 -7 -6 -15 -10 -8 -3 -15 -1 -15 4 0 6 7 10 15 10 8 0 15 -2
15 -4z m1881 -11 c11 6 11 5 2 -5 -12 -14 -33 -6 -33 13 0 8 3 7 9 -2 5 -8 14
-10 22 -6z m1695 -11 c-4 -9 -9 -15 -11 -12 -3 3 -3 13 1 22 4 9 9 15 11 12 3
-3 3 -13 -1 -22z m-1746 6 c8 -5 11 -10 5 -10 -5 0 -17 5 -25 10 -8 5 -10 10
-5 10 6 0 17 -5 25 -10z m-2302 -25 c-3 -3 -9 2 -12 12 -6 14 -5 15 5 6 7 -7
10 -15 7 -18z m400 8 c-1 -5 6 -29 16 -56 11 -26 16 -50 13 -53 -3 -3 -8 8
-12 25 -4 17 -11 31 -16 31 -6 0 -8 4 -4 9 3 5 -2 16 -10 24 -14 14 -12 18 13
26 1 1 1 -2 0 -6z m3499 -27 c-14 -43 -16 -43 -14 -4 1 19 7 35 13 35 9 0 9
-9 1 -31z m-3842 14 c3 -5 1 -10 -4 -10 -6 0 -11 5 -11 10 0 6 2 10 4 10 3 0
8 -4 11 -10z m2208 -30 c3 -11 2 -18 -3 -15 -4 3 -10 14 -13 25 -3 11 -2 18 3
15 4 -3 10 -14 13 -25z m35 10 c-7 -10 -14 -17 -17 -15 -4 4 18 35 25 35 2 0
-1 -9 -8 -20z m1753 -7 c-12 -20 -14 -14 -5 12 4 9 9 14 11 11 3 -2 0 -13 -6
-23z m-3676 8 c3 -5 2 -12 -3 -15 -5 -3 -9 1 -9 9 0 17 3 19 12 6z m3536 -14
c-10 -9 -11 -8 -5 6 3 10 9 15 12 12 3 -3 0 -11 -7 -18z m299 19 c0 -2 -7 -7
-16 -10 -8 -3 -12 -2 -9 4 6 10 25 14 25 6z m-4143 -28 c-3 -8 -6 -5 -6 6 -1
11 2 17 5 13 3 -3 4 -12 1 -19z m1847 13 c4 -5 -3 -7 -14 -4 -23 6 -26 13 -6
13 8 0 17 -4 20 -9z m1803 3 c-3 -3 -12 -4 -19 -1 -8 3 -5 6 6 6 11 1 17 -2
13 -5z m433 -19 c-7 -8 -17 -15 -23 -15 -6 0 -2 7 9 15 25 19 30 19 14 0z m45
-8 c-16 -12 -30 -20 -30 -18 0 2 -11 -1 -25 -8 -23 -11 -24 -11 -6 3 10 9 23
13 27 10 5 -3 9 -1 9 4 0 5 10 14 23 20 34 16 35 13 2 -11z m-1946 -2 c3 -4
-1 -6 -9 -5 -30 5 -42 0 -37 -14 4 -11 1 -13 -10 -9 -11 4 -14 2 -9 -5 4 -7 3
-12 -2 -12 -6 0 -13 7 -16 16 -3 8 -2 13 3 10 5 -3 15 2 22 11 12 14 11 15
-11 9 -18 -5 -21 -5 -11 3 15 10 68 7 80 -4z m-2144 -5 c3 -5 2 -10 -4 -10 -5
0 -13 5 -16 10 -3 6 -2 10 4 10 5 0 13 -4 16 -10z m1695 -4 c0 -2 -7 -7 -16
-10 -8 -3 -12 -2 -9 4 6 10 25 14 25 6z m2237 -18 c-3 -8 -6 -5 -6 6 -1 11 2
17 5 13 3 -3 4 -12 1 -19z m-3721 -45 c-3 -4 -6 -1 -6 6 0 7 -4 9 -10 6 -6 -4
-7 1 -3 11 6 15 7 15 15 -1 6 -9 7 -19 4 -22z m1509 27 c3 -5 2 -10 -4 -10 -5
0 -13 5 -16 10 -3 6 -2 10 4 10 5 0 13 -4 16 -10z m2042 4 c-3 -3 -12 -4 -19
-1 -8 3 -5 6 6 6 11 1 17 -2 13 -5z m-2082 -22 c-3 -3 -11 0 -18 7 -9 10 -8
11 6 5 10 -3 15 -9 12 -12z m2155 -31 c0 -32 -6 -24 -14 19 -4 25 -3 31 4 20
5 -8 10 -26 10 -39z m173 32 c-7 -3 -9 -12 -6 -21 3 -9 3 -14 -1 -11 -4 4 -8
16 -11 27 -3 16 0 19 13 15 9 -4 11 -8 5 -10z m-269 -6 c4 4 4 -1 0 -10 -3
-10 -7 -17 -8 -15 -1 2 -8 12 -16 23 -14 18 -13 19 1 8 9 -7 19 -10 23 -6z
m203 -34 c-3 -10 -5 -2 -5 17 0 19 2 27 5 18 2 -10 2 -26 0 -35z m-80 15 c-3
-8 -6 -5 -6 6 -1 11 2 17 5 13 3 -3 4 -12 1 -19z m-2290 -10 c2 -17 0 -19 -7
-8 -5 8 -6 18 -4 22 8 12 10 10 11 -14z m475 -330 l3 -323 29 -44 c25 -40 28
-50 22 -99 -11 -90 -16 -93 -73 -36 -75 76 -76 83 -80 457 l-4 327 43 19 c24
11 46 20 50 20 4 1 8 -144 10 -321z m-536 267 c-24 -24 -57 -74 -74 -110 -36
-73 -66 -197 -56 -229 4 -12 8 -30 9 -41 2 -11 7 -19 12 -18 5 1 8 -10 7 -25
-2 -37 -2 -37 -22 -19 -10 10 -21 14 -25 11 -3 -3 -3 4 0 17 4 12 2 20 -3 17
-12 -8 -18 38 -18 127 0 75 25 139 78 203 15 16 26 33 26 36 0 16 74 70 102
75 3 1 -13 -19 -36 -44z m-1321 25 c3 -5 1 -10 -4 -10 -6 0 -11 5 -11 10 0 6
2 10 4 10 3 0 8 -4 11 -10z m1380 0 c-3 -5 -12 -10 -18 -10 -7 0 -6 4 3 10 19
12 23 12 15 0z m-1261 -8 c3 -5 -1 -9 -9 -9 -8 0 -12 4 -9 9 3 4 7 8 9 8 2 0
6 -4 9 -8z m3536 -54 l-5 -63 -3 49 c-3 43 2 76 10 76 2 0 1 -28 -2 -62z
m-3590 42 c0 -5 -2 -10 -4 -10 -3 0 -8 5 -11 10 -3 6 -1 10 4 10 6 0 11 -4 11
-10z m3067 -37 c-14 -27 -51 -103 -83 -171 -31 -67 -59 -120 -61 -118 -2 2 22
57 52 122 31 66 61 130 68 144 16 34 38 70 44 70 2 0 -7 -21 -20 -47z m301 12
c-3 -3 -9 2 -12 12 -6 14 -5 15 5 6 7 -7 10 -15 7 -18z m42 11 c0 -9 -32 -36
-42 -36 -6 0 0 9 13 20 25 21 29 23 29 16z m-1925 -26 c-3 -5 -12 -10 -18 -10
-7 0 -6 4 3 10 19 12 23 12 15 0z m-1495 -4 c0 -2 -7 -9 -15 -16 -13 -11 -14
-10 -9 4 5 14 24 23 24 12z m3527 -18 c-3 -8 -6 -5 -6 6 -1 11 2 17 5 13 3 -3
4 -12 1 -19z m35 0 c-7 -7 -12 -8 -12 -2 0 14 12 26 19 19 2 -3 -1 -11 -7 -17z
m345 16 c-3 -3 -12 -4 -19 -1 -8 3 -5 6 6 6 11 1 17 -2 13 -5z m-3877 -24 c0
-5 -2 -10 -4 -10 -3 0 -8 5 -11 10 -3 6 -1 10 4 10 6 0 11 -4 11 -10z m1506
-46 c3 -30 4 -119 2 -197 -5 -128 -8 -149 -36 -220 -42 -106 -71 -154 -131
-210 -75 -71 -147 -101 -246 -101 -124 0 -220 52 -276 148 -40 70 -40 127 0
167 35 34 50 36 82 10 20 -16 22 -23 13 -38 -6 -10 -21 -19 -33 -21 -16 -3
-21 -10 -21 -33 0 -105 156 -159 277 -96 99 51 115 94 119 325 l2 164 34 30
c53 48 172 124 200 127 4 1 10 -24 14 -55z m-131 36 c3 -6 -1 -7 -9 -4 -18 7
-21 14 -7 14 6 0 13 -4 16 -10z m-24 -17 c13 -15 12 -15 -8 -4 -24 12 -29 21
-14 21 5 0 15 -7 22 -17z m2069 7 c0 -5 -2 -10 -4 -10 -3 0 -8 5 -11 10 -3 6
-1 10 4 10 6 0 11 -4 11 -10z m-3569 -28 c-14 -26 -14 -33 0 -29 6 1 13 -6 14
-16 2 -9 0 -15 -5 -12 -5 3 -10 2 -13 -2 -2 -5 -2 -2 0 6 2 8 -2 11 -12 7 -13
-5 -13 -1 0 31 8 19 15 38 15 41 0 3 3 3 6 0 3 -4 1 -15 -5 -26z m-343 9 c11
-6 10 -10 -4 -15 -9 -3 -19 -4 -22 -1 -3 3 1 5 9 5 11 0 11 2 -1 10 -8 5 -10
10 -5 10 6 0 16 -4 23 -9z m4207 -11 c-14 -16 -16 -23 -7 -32 7 -7 12 -17 12
-22 0 -6 -7 0 -16 12 -15 21 -15 25 2 43 9 10 19 19 22 19 3 0 -3 -9 -13 -20z
m75 16 c0 -2 -8 -10 -17 -17 -16 -13 -17 -12 -4 4 13 16 21 21 21 13z m-2470
-30 c0 -2 -8 -10 -17 -17 -16 -13 -17 -12 -4 4 13 16 21 21 21 13z m2117 -18
c-3 -8 -6 -5 -6 6 -1 11 2 17 5 13 3 -3 4 -12 1 -19z m-3937 8 c0 -2 -7 -7
-16 -10 -8 -3 -12 -2 -9 4 6 10 25 14 25 6z m26 -45 c-1 -16 -5 -33 -9 -38 -5
-4 -5 0 -2 9 4 9 2 19 -4 23 -6 3 -11 11 -11 16 0 6 5 7 12 3 8 -5 9 -2 5 10
-4 9 -3 15 2 12 5 -3 8 -19 7 -35z m32 14 c-3 -3 -9 2 -12 12 -6 14 -5 15 5 6
7 -7 10 -15 7 -18z m347 15 c-3 -5 -12 -10 -18 -10 -7 0 -6 4 3 10 19 12 23
12 15 0z m1350 -6 c-10 -7 -14 -19 -10 -26 3 -7 0 -4 -9 6 -19 23 -15 32 14
32 19 0 20 -1 5 -12z m2292 -6 c-3 -8 -6 -5 -6 6 -1 11 2 17 5 13 3 -3 4 -12
1 -19z m-3912 -28 c10 -11 14 -20 9 -20 -5 0 -15 9 -22 20 -7 11 -11 20 -9 20
2 0 12 -9 22 -20z m3650 0 c3 -5 2 -10 -4 -10 -5 0 -13 5 -16 10 -3 6 -2 10 4
10 5 0 13 -4 16 -10z m272 -37 c-3 -10 -5 -4 -5 12 0 17 2 24 5 18 2 -7 2 -21
0 -30z m-3962 9 c-3 -3 -11 0 -18 7 -9 10 -8 11 6 5 10 -3 15 -9 12 -12z m80
-22 c10 -11 16 -20 13 -20 -3 0 -13 9 -23 20 -10 11 -16 20 -13 20 3 0 13 -9
23 -20z m1532 -2 c-3 -8 -6 -5 -6 6 -1 11 2 17 5 13 3 -3 4 -12 1 -19z m2134
5 c13 -16 12 -17 -3 -4 -17 13 -22 21 -14 21 2 0 10 -8 17 -17z m318 -33 c0
-10 -3 -8 -9 5 -12 27 -12 43 0 25 5 -8 9 -22 9 -30z m-4004 19 c11 -17 -1
-21 -15 -4 -8 9 -8 15 -2 15 6 0 14 -5 17 -11z m1585 -35 c0 -8 -4 -14 -10
-14 -5 0 -10 9 -10 21 0 11 5 17 10 14 6 -3 10 -13 10 -21z m2189 13 c13 4 13
2 -2 -7 -19 -12 -37 -6 -37 13 0 8 3 8 11 0 6 -6 19 -9 28 -6z m-3723 -12 c18
-13 18 -14 -4 -8 -12 3 -25 9 -28 14 -8 14 10 11 32 -6z m3118 -154 c-43 -88
-79 -159 -81 -157 -4 4 10 35 114 254 19 41 37 72 39 69 2 -2 -30 -77 -72
-166z m-3174 155 c0 -3 -4 -8 -10 -11 -5 -3 -10 -1 -10 4 0 6 5 11 10 11 6 0
10 -2 10 -4z m3792 -38 c-8 -8 -9 -4 -5 13 4 13 8 18 11 10 2 -7 -1 -18 -6
-23z m343 4 c-3 -3 -11 0 -18 7 -9 10 -8 11 6 5 10 -3 15 -9 12 -12z m-4205
-22 c6 -11 8 -20 6 -20 -3 0 -10 9 -16 20 -6 11 -8 20 -6 20 3 0 10 -9 16 -20z
m39 -19 c-2 -6 -10 2 -17 17 -11 25 -11 25 4 10 9 -9 15 -21 13 -27z m3928 17
c-3 -8 -6 -5 -6 6 -1 11 2 17 5 13 3 -3 4 -12 1 -19z m20 0 c-3 -8 -6 -5 -6 6
-1 11 2 17 5 13 3 -3 4 -12 1 -19z m-706 -74 c-22 -44 -40 -76 -41 -72 -1 14
70 161 76 156 3 -3 -13 -41 -35 -84z m859 64 c11 -22 10 -22 -4 -4 -16 20 -21
13 -17 -22 1 -7 -5 -15 -14 -18 -9 -4 -14 -13 -11 -21 4 -8 1 -11 -5 -7 -6 4
-15 0 -20 -7 -5 -8 -9 -9 -9 -3 0 6 7 17 15 24 12 10 13 16 3 28 -7 9 -8 13
-2 10 5 -4 18 4 28 18 23 29 23 29 36 2z m40 8 c-7 -7 -13 -7 -20 0 -6 6 -3
10 10 10 13 0 16 -4 10 -10z m-3605 -14 c-3 -3 -11 0 -18 7 -9 10 -8 11 6 5
10 -3 15 -9 12 -12z m-35 -7 c0 -8 -4 -15 -10 -15 -5 0 -7 7 -4 15 4 8 8 15
10 15 2 0 4 -7 4 -15z m3202 -13 c-8 -2 -8 -8 3 -19 16 -16 12 -34 -8 -32 -8
0 -8 2 1 6 10 4 10 8 0 20 -19 23 -19 43 0 35 10 -3 12 -7 4 -10z m-3655 -21
c-8 -9 -12 -10 -15 -2 -6 19 -20 12 -15 -8 3 -11 11 -17 18 -15 10 4 12 -1 8
-15 -7 -28 -12 -27 -28 11 -16 39 -13 46 19 44 19 -1 22 -4 13 -15z m65 0 c-4
-11 -7 -12 -10 -2 -3 10 -6 10 -12 1 -5 -9 -9 -8 -13 2 -3 9 3 14 18 14 16 0
21 -4 17 -15z m3901 4 c-3 -9 -8 -14 -10 -11 -3 3 -2 9 2 15 9 16 15 13 8 -4z
m-3573 -5 c0 -5 -5 -10 -11 -10 -5 0 -7 5 -4 10 3 6 8 10 11 10 2 0 4 -4 4
-10z m-20 -20 c8 -5 11 -10 5 -10 -5 0 -17 5 -25 10 -8 5 -10 10 -5 10 6 0 17
-5 25 -10z m1804 -12 c-5 -7 -2 -9 8 -6 9 4 15 0 15 -8 0 -17 1 -17 -32 0 -23
12 -24 15 -8 19 10 3 19 5 21 6 2 0 0 -4 -4 -11z m-1799 -26 c-3 -3 -11 0 -18
7 -9 10 -8 11 6 5 10 -3 15 -9 12 -12z m1860 0 c-3 -3 -11 0 -18 7 -9 10 -8
11 6 5 10 -3 15 -9 12 -12z m1458 5 c3 -8 0 -14 -7 -14 -7 0 -13 6 -13 14 0 7
4 13 8 13 4 0 9 -6 12 -13z m-3348 -7 c3 -5 1 -10 -4 -10 -6 0 -11 5 -11 10 0
6 2 10 4 10 3 0 8 -4 11 -10z m3632 -11 c-6 -10 -16 -15 -21 -12 -6 4 -5 8 2
11 7 2 10 7 8 11 -3 4 1 8 8 8 11 0 12 -4 3 -18z m-3901 -7 c-10 -2 -22 0 -28
6 -6 6 0 7 19 4 21 -5 23 -7 9 -10z m1431 2 c-3 -3 -12 -4 -19 -1 -8 3 -5 6 6
6 11 1 17 -2 13 -5z m738 -4 c3 -5 1 -10 -4 -10 -6 0 -11 5 -11 10 0 6 2 10 4
10 3 0 8 -4 11 -10z m-1928 -22 c-3 -8 -6 -5 -6 6 -1 11 2 17 5 13 3 -3 4 -12
1 -19z m33 -23 c0 -5 -5 -3 -10 5 -5 8 -10 20 -10 25 0 6 5 3 10 -5 5 -8 10
-19 10 -25z m97 -7 c-3 -7 -5 -2 -5 12 0 14 2 19 5 13 2 -7 2 -19 0 -25z
m2682 -17 c-11 -22 -23 -41 -26 -41 -2 0 -2 3 0 8 2 4 12 24 21 45 10 21 20
37 22 34 3 -3 -5 -23 -17 -46z m721 21 c0 -10 -6 -19 -14 -19 -11 0 -12 4 -3
19 7 10 13 18 14 18 2 0 3 -8 3 -18z m-1659 -35 c43 -68 52 -126 34 -204 -21
-91 -94 -221 -117 -207 -5 3 -2 14 7 24 18 20 55 121 49 132 -3 5 -1 8 4 8 5
0 13 28 16 63 5 47 2 81 -14 141 -23 91 -22 86 -12 86 4 0 19 -19 33 -43z
m1516 21 c-3 -8 -6 -5 -6 6 -1 11 2 17 5 13 3 -3 4 -12 1 -19z m-3230 -20 c-3
-8 -6 -5 -6 6 -1 11 2 17 5 13 3 -3 4 -12 1 -19z m-30 -20 c-3 -7 -5 -2 -5 12
0 14 2 19 5 13 2 -7 2 -19 0 -25z m3573 20 c0 -11 -22 -10 -39 1 -10 7 -7 9
12 8 15 -1 27 -5 27 -9z m-1719 -29 c-5 -13 -10 -19 -10 -12 -1 15 10 45 15
40 3 -2 0 -15 -5 -28z m1668 10 c-15 -9 -32 -2 -24 11 3 5 13 6 21 3 12 -4 13
-8 3 -14z m-152 -11 c-3 -8 -6 -5 -6 6 -1 11 2 17 5 13 3 -3 4 -12 1 -19z
m110 0 c-3 -8 -6 -5 -6 6 -1 11 2 17 5 13 3 -3 4 -12 1 -19z m-1639 -48 c0 -9
-3 -7 -8 5 -5 11 -8 29 -8 40 0 16 2 15 8 -5 4 -14 8 -32 8 -40z m23 13 c-12
-20 -14 -14 -5 12 4 9 9 14 11 11 3 -2 0 -13 -6 -23z m-64 -5 c-3 -8 -6 -5 -6
6 -1 11 2 17 5 13 3 -3 4 -12 1 -19z m803 -27 c-26 -51 -34 -53 -13 -3 19 47
24 54 30 49 2 -3 -5 -23 -17 -46z m-2645 19 c3 -5 2 -10 -4 -10 -5 0 -13 5
-16 10 -3 6 -2 10 4 10 5 0 13 -4 16 -10z m55 0 c0 -5 -4 -10 -10 -10 -5 0
-10 5 -10 10 0 6 5 10 10 10 6 0 10 -4 10 -10z m1860 -30 c0 -5 -4 -10 -9 -10
-5 0 -16 -3 -25 -6 -9 -3 -16 -1 -16 6 0 6 5 8 10 5 6 -3 10 -1 10 4 0 6 7 11
15 11 8 0 15 -4 15 -10z m730 -49 c-11 -23 -23 -41 -26 -41 -3 0 -3 3 -1 8 2
4 12 24 22 45 10 21 20 36 22 33 2 -2 -5 -22 -17 -45z m585 39 c3 -5 1 -10 -4
-10 -6 0 -11 5 -11 10 0 6 2 10 4 10 3 0 8 -4 11 -10z m-3311 -34 c-3 -15 -8
-25 -11 -23 -2 3 -1 17 3 31 3 15 8 25 11 23 2 -3 1 -17 -3 -31z m1436 24 c0
-5 -5 -10 -11 -10 -5 0 -7 5 -4 10 3 6 8 10 11 10 2 0 4 -4 4 -10z m-1375 -20
c-3 -5 -12 -10 -18 -10 -7 0 -6 4 3 10 19 12 23 12 15 0z m-42 -15 c-3 -9 -8
-14 -10 -11 -3 3 -2 9 2 15 9 16 15 13 8 -4z m3504 -27 c-3 -8 -6 -5 -6 6 -1
11 2 17 5 13 3 -3 4 -12 1 -19z m-351 -3 c9 -8 11 -15 5 -15 -5 0 -13 5 -16
10 -4 6 -11 7 -17 4 -7 -4 -8 -2 -4 4 9 16 14 15 32 -3z m444 -18 c0 -5 -4 -5
-10 -2 -5 3 -10 2 -10 -3 0 -5 -11 -14 -24 -20 -18 -8 -24 -8 -22 1 3 23 17
36 31 30 10 -3 15 1 15 13 0 16 2 17 10 4 5 -8 10 -19 10 -23z m-1658 1 c-7
-7 -12 -8 -12 -2 0 14 12 26 19 19 2 -3 -1 -11 -7 -17z m-2010 -60 c18 -35 35
-67 37 -73 2 -5 -23 15 -56 45 -56 51 -59 56 -44 72 9 9 19 17 23 17 4 1 22
-27 40 -61z m3463 50 c4 4 2 -4 -5 -18 -16 -32 -25 -41 -16 -16 3 10 1 26 -6
35 -11 14 -11 14 3 4 9 -7 19 -9 24 -5z m-1485 -2 c0 -3 -4 -8 -10 -11 -5 -3
-10 -1 -10 4 0 6 5 11 10 11 6 0 10 -2 10 -4z m1608 -21 c-3 -3 -9 2 -12 12
-6 14 -5 15 5 6 7 -7 10 -15 7 -18z m-20 -7 c10 -12 10 -18 1 -24 -7 -4 -9 -3
-5 4 3 6 2 13 -4 17 -5 3 -10 11 -10 17 0 6 1 9 3 7 1 -2 8 -11 15 -21z
m-1748 3 c0 -5 10 -11 22 -15 25 -6 18 -16 -24 -34 -27 -11 -28 -11 -28 23 0
24 5 35 15 35 8 0 15 -4 15 -9z m1449 -40 l-2 -26 -4 25 c-3 14 -10 32 -16 40
-11 13 -10 13 6 1 9 -7 16 -25 16 -40z m-1274 -9 c-3 -3 -5 1 -5 9 0 11 -2 11
-10 -1 -11 -17 -13 0 -3 26 6 15 7 14 15 -6 5 -13 6 -25 3 -28z m-1608 16 c-3
-8 -6 -5 -6 6 -1 11 2 17 5 13 3 -3 4 -12 1 -19z m-582 2 c3 -5 1 -10 -4 -10
-6 0 -11 5 -11 10 0 6 2 10 4 10 3 0 8 -4 11 -10z m122 3 c-4 -3 -3 -11 2 -17
17 -23 19 -44 5 -50 -11 -4 -13 0 -8 18 3 13 1 27 -5 31 -11 6 -6 25 6 25 4 0
3 -3 0 -7z m3611 -24 c-3 -8 -7 -3 -11 10 -4 17 -3 21 5 13 5 -5 8 -16 6 -23z
m-3098 -4 c0 -3 -6 -4 -12 -2 -9 1 -12 -8 -11 -26 l2 -29 -19 23 c-11 12 -20
27 -20 33 0 6 4 5 9 -3 6 -9 11 -10 15 -2 4 6 4 16 0 22 -4 8 0 8 15 0 11 -7
21 -14 21 -16z m2271 2 c-10 -9 -11 -8 -5 6 3 10 9 15 12 12 3 -3 0 -11 -7
-18z m649 -12 c0 -5 -5 -3 -10 5 -5 8 -10 20 -10 25 0 6 5 3 10 -5 5 -8 10
-19 10 -25z m-3590 21 c0 -3 -4 -8 -10 -11 -5 -3 -10 -1 -10 4 0 6 5 11 10 11
6 0 10 -2 10 -4z m2072 -26 c-15 -13 -18 -20 -10 -24 9 -3 7 -9 -6 -20 -28
-23 -35 -20 -34 15 1 25 7 34 32 44 39 17 48 9 18 -15z m117 -10 c6 -19 7 -30
2 -25 -5 6 -13 24 -17 40 -9 39 0 30 15 -15z m-2228 21 c-13 -8 -13 -12 -1
-28 13 -17 13 -17 -4 -1 -19 16 -15 38 7 38 8 0 7 -4 -2 -9z m626 -33 c-3 -8
-6 -5 -6 6 -1 11 2 17 5 13 3 -3 4 -12 1 -19z m2792 -14 c12 -19 17 -33 12
-29 -5 3 -12 -3 -15 -12 -4 -15 -5 -15 -4 2 1 39 -4 50 -12 25 -7 -21 -8 -20
-7 12 1 21 3 38 4 38 0 0 10 -16 22 -36z m-3150 0 c4 3 8 -1 8 -9 0 -10 -5
-11 -19 -4 -10 6 -15 15 -11 22 5 8 8 8 11 -1 2 -7 7 -10 11 -8z m1944 -4 c3
-11 1 -20 -4 -20 -5 0 -9 9 -9 20 0 11 2 20 4 20 2 0 6 -9 9 -20z m-1470 -3
c3 -8 -1 -14 -8 -14 -7 0 -11 6 -8 14 3 7 6 13 8 13 2 0 5 -6 8 -13z m1447 -6
c0 -4 -6 -8 -14 -8 -8 0 -12 6 -9 14 5 13 23 9 23 -6z m-1955 -9 c-3 -3 -11 0
-18 7 -9 10 -8 11 6 5 10 -3 15 -9 12 -12z m-155 -22 c8 -5 11 -10 5 -10 -5 0
-17 5 -25 10 -8 5 -10 10 -5 10 6 0 17 -5 25 -10z m3745 -1 c17 -8 15 -8 -7
-4 -22 4 -26 2 -22 -10 4 -8 1 -15 -6 -15 -6 0 -8 5 -5 10 3 6 0 10 -7 10 -9
0 -9 3 2 10 18 11 19 11 45 -1z m-3640 -19 c-3 -5 -11 -10 -16 -10 -6 0 -7 5
-4 10 3 6 11 10 16 10 6 0 7 -4 4 -10z m2030 1 c-9 -8 -36 -10 -30 -2 2 4 11
8 20 8 8 0 13 -3 10 -6z m1225 -11 c0 -5 6 -10 14 -10 8 0 17 -4 20 -8 2 -4
-4 -8 -14 -8 -10 0 -23 8 -29 18 -7 11 -7 18 -1 18 5 0 10 -4 10 -10z m-1344
-43 c-2 -7 -5 -4 -5 6 -1 10 -5 15 -11 12 -6 -4 -7 1 -3 11 6 15 7 15 15 0 5
-9 7 -22 4 -29z m1307 28 c-3 -9 -8 -14 -10 -11 -3 3 -2 9 2 15 9 16 15 13 8
-4z m177 -4 c0 -6 -4 -13 -10 -16 -5 -3 -10 1 -10 9 0 9 5 16 10 16 6 0 10 -4
10 -9z m-287 -16 c-3 -9 -8 -14 -10 -11 -3 3 -2 9 2 15 9 16 15 13 8 -4z
m-2630 -74 c2 -35 1 -58 -3 -51 -6 9 -9 9 -12 -1 -3 -9 -12 0 -22 21 l-17 35
21 -25 c19 -23 21 -23 19 -5 -2 35 1 99 5 94 2 -2 6 -33 9 -68z m2644 37 c-3
-8 -6 -5 -6 6 -1 11 2 17 5 13 3 -3 4 -12 1 -19z m-130 -20 c-3 -8 -6 -5 -6 6
-1 11 2 17 5 13 3 -3 4 -12 1 -19z m110 -10 c-3 -8 -6 -5 -6 6 -1 11 2 17 5
13 3 -3 4 -12 1 -19z m-2505 -23 c-3 -5 -7 -4 -10 3 -2 7 -8 10 -13 7 -5 -4
-6 1 -3 9 5 12 9 13 19 3 7 -7 10 -16 7 -22z m1346 -11 c-12 -13 -26 -24 -32
-24 -5 0 -2 6 9 13 10 8 15 18 12 23 -3 6 3 10 13 11 17 2 17 0 -2 -23z m1402
22 c0 -2 -8 -10 -17 -17 -16 -13 -17 -12 -4 4 13 16 21 21 21 13z m147 -2 c-3
-3 -12 -4 -19 -1 -8 3 -5 6 6 6 11 1 17 -2 13 -5z m46 -11 c-7 -2 -19 -2 -25
0 -7 3 -2 5 12 5 14 0 19 -2 13 -5z m140 0 c-7 -2 -19 -2 -25 0 -7 3 -2 5 12
5 14 0 19 -2 13 -5z m-468 -22 c3 -5 1 -12 -5 -16 -5 -3 -10 1 -10 9 0 18 6
21 15 7z m-83 -35 c7 4 8 2 4 -5 -10 -15 -26 -4 -25 17 1 15 2 15 6 -1 2 -9 9
-14 15 -11z m38 14 c0 -5 -2 -10 -4 -10 -3 0 -8 5 -11 10 -3 6 -1 10 4 10 6 0
11 -4 11 -10z m-2580 -25 c0 -8 -2 -15 -4 -15 -2 0 -6 7 -10 15 -3 8 -1 15 4
15 6 0 10 -7 10 -15z m1277 -22 c1 -22 -1 -24 -8 -10 -6 9 -7 22 -4 27 9 14
10 13 12 -17z m20 5 c-3 -8 -6 -5 -6 6 -1 11 2 17 5 13 3 -3 4 -12 1 -19z
m1478 12 c3 -6 -1 -7 -9 -4 -18 7 -21 14 -7 14 6 0 13 -4 16 -10z m-214 -14
c-9 -11 -9 -15 0 -18 8 -3 7 -7 -3 -16 -12 -10 -14 -8 -12 11 1 12 3 25 3 30
1 4 6 7 12 7 8 0 8 -4 0 -14z m272 -3 c-7 -2 -19 -2 -25 0 -7 3 -2 5 12 5 14
0 19 -2 13 -5z m-2866 -45 c-3 -8 -6 -5 -6 6 -1 11 2 17 5 13 3 -3 4 -12 1
-19z m1203 7 c11 -13 10 -14 -4 -9 -9 3 -16 10 -16 15 0 13 6 11 20 -6z m1410
-9 c0 -2 -7 -7 -16 -10 -8 -3 -12 -2 -9 4 6 10 25 14 25 6z m-1710 -38 c0 -5
-4 -7 -8 -4 -16 10 -29 -31 -27 -88 2 -58 1 -59 -17 -36 -24 30 -23 90 2 123
19 25 50 28 50 5z m340 18 c0 -2 -7 -9 -15 -16 -13 -11 -14 -10 -9 4 5 14 24
23 24 12z m1075 -35 c-21 -43 -29 -39 -8 4 9 19 18 33 21 31 2 -2 -4 -18 -13
-35z m189 28 c-4 -7 0 -9 14 -5 11 4 23 2 27 -3 3 -7 0 -8 -9 -5 -9 4 -16 1
-16 -6 0 -10 -3 -10 -15 0 -13 11 -12 30 1 30 3 0 2 -5 -2 -11z m-1387 -23
c-22 -17 -22 -30 0 -22 10 4 14 3 9 -1 -4 -4 -19 -8 -32 -8 l-25 -1 28 27 c15
14 30 24 33 22 3 -3 -3 -10 -13 -17z m1287 8 c3 -8 2 -12 -4 -9 -6 3 -10 10
-10 16 0 14 7 11 14 -7z m396 -8 c0 -3 -4 -8 -10 -11 -5 -3 -10 -1 -10 4 0 6
5 11 10 11 6 0 10 -2 10 -4z m-35 -16 c3 -5 2 -10 -4 -10 -5 0 -13 5 -16 10
-3 6 -2 10 4 10 5 0 13 -4 16 -10z m-342 -40 c-10 -11 -19 -20 -21 -20 -1 0 2
9 8 20 6 11 15 20 20 20 6 0 2 -9 -7 -20z m-213 -15 c7 -9 8 -15 2 -15 -5 0
-12 7 -16 15 -3 8 -4 15 -2 15 2 0 9 -7 16 -15z m365 5 c-27 -12 -43 -12 -25
0 8 5 22 9 30 9 10 0 8 -3 -5 -9z m-255 -4 c0 -3 -4 -8 -10 -11 -5 -3 -10 -1
-10 4 0 6 5 11 10 11 6 0 10 -2 10 -4z m-1276 -14 c7 -11 -28 -40 -58 -48 -14
-3 -33 -1 -43 5 -15 10 -14 10 8 5 29 -6 101 30 77 39 -8 4 -9 6 -1 6 6 1 14
-3 17 -7z m1341 -2 c-3 -5 -11 -10 -16 -10 -6 0 -7 5 -4 10 3 6 11 10 16 10 6
0 7 -4 4 -10z m-1489 -9 c-4 -5 -1 -11 6 -13 8 -3 7 -6 -3 -10 -10 -4 -15 1
-16 13 -1 10 3 19 8 19 6 0 8 -4 5 -9z m1709 -1 c13 -6 15 -9 5 -9 -8 0 -22 4
-30 9 -18 12 -2 12 25 0z m-370 -20 c-10 -11 -25 -19 -34 -19 -13 1 -13 2 2 6
9 2 14 9 11 15 -4 6 -2 8 4 4 6 -3 13 -2 17 4 3 5 9 10 12 10 3 0 -2 -9 -12
-20z m89 5 c-4 -8 -11 -15 -16 -15 -6 0 -5 6 2 15 7 8 14 15 16 15 2 0 1 -7
-2 -15z m260 -16 c-29 -12 -36 -10 -22 5 7 7 19 11 27 8 11 -4 10 -7 -5 -13z
m-1514 1 c-8 -5 -19 -10 -25 -10 -5 0 -3 5 5 10 8 5 20 10 25 10 6 0 3 -5 -5
-10z m-145 -10 c3 -5 -1 -10 -10 -10 -9 0 -13 5 -10 10 3 6 8 10 10 10 2 0 7
-4 10 -10z m-895 -20 c-9 -6 -9 -9 1 -12 10 -3 9 -6 -2 -10 -11 -4 -15 1 -15
17 0 15 5 21 14 18 10 -4 11 -8 2 -13z m985 10 c-3 -5 -14 -10 -23 -10 -15 0
-15 2 -2 10 20 13 33 13 25 0z m1242 4 c-3 -3 -12 -4 -19 -1 -8 3 -5 6 6 6 11
1 17 -2 13 -5z m463 -4 c8 -5 11 -10 5 -10 -5 0 -17 5 -25 10 -8 5 -10 10 -5
10 6 0 17 -5 25 -10z m-2995 -10 c3 -6 -1 -7 -9 -4 -18 7 -21 14 -7 14 6 0 13
-4 16 -10z m2349 -14 c-3 -8 0 -17 7 -22 8 -4 10 -3 5 4 -4 7 -3 12 3 12 5 0
9 -8 8 -19 -1 -12 -7 -17 -18 -14 -13 4 -19 33 -10 51 5 9 9 -1 5 -12z m-2309
-14 c-3 -3 -11 0 -18 7 -9 10 -8 11 6 5 10 -3 15 -9 12 -12z m295 -2 c-8 -5
-19 -10 -25 -10 -5 0 -3 5 5 10 8 5 20 10 25 10 6 0 3 -5 -5 -10z m2355 -10
c3 -5 -1 -10 -10 -10 -9 0 -13 5 -10 10 3 6 8 10 10 10 2 0 7 -4 10 -10z
m-2542 -7 c-7 -2 -19 -2 -25 0 -7 3 -2 5 12 5 14 0 19 -2 13 -5z m57 -1 c0 -4
-16 -12 -35 -18 -44 -14 -45 -8 -2 11 39 17 37 17 37 7z m200 -13 c-29 -17
-31 -19 -10 -15 24 5 24 4 6 -9 -27 -20 -32 -19 -32 9 0 14 4 23 8 20 4 -3 16
0 25 5 10 6 23 10 28 10 6 0 -6 -9 -25 -20z m-123 5 c-3 -3 -12 -4 -19 -1 -8
3 -5 6 6 6 11 1 17 -2 13 -5z m193 2 c0 -3 -4 -8 -10 -11 -5 -3 -10 -1 -10 4
0 6 5 11 10 11 6 0 10 -2 10 -4z m2100 -26 c-8 -5 -19 -10 -25 -10 -5 0 -3 5
5 10 8 5 20 10 25 10 6 0 3 -5 -5 -10z m50 -15 c0 -1 -12 -2 -26 -2 -17 0 -22
2 -13 7 10 7 39 3 39 -5z m-432 -9 c-7 -8 -15 -12 -17 -11 -5 6 10 25 20 25 5
0 4 -6 -3 -14z m618 5 c-3 -5 1 -12 10 -15 23 -9 26 -8 18 7 -4 6 -3 9 1 4 5
-4 10 -18 12 -30 2 -16 1 -18 -6 -8 -5 8 -14 10 -21 6 -8 -5 -11 -4 -6 3 3 6
-3 14 -15 17 -17 6 -19 9 -8 16 18 11 22 11 15 0z m-2529 -7 c-3 -3 -12 -4
-19 -1 -8 3 -5 6 6 6 11 1 17 -2 13 -5z m1880 -9 c0 -8 -4 -15 -9 -15 -4 0 -8
7 -8 15 0 8 4 15 8 15 5 0 9 -7 9 -15z m394 1 c-9 -11 -6 -15 14 -20 15 -4 25
-13 25 -24 -1 -16 -1 -16 -11 1 -5 9 -19 17 -29 17 -11 0 -20 2 -20 4 0 14 14
36 22 36 7 0 6 -5 -1 -14z m-42 -32 c14 -12 -19 -1 -35 12 -18 14 -18 14 6 3
14 -6 27 -13 29 -15z m-199 -34 c-8 -5 -19 -10 -25 -10 -5 0 -3 5 5 10 8 5 20
10 25 10 6 0 3 -5 -5 -10z"/>
<path d="M4574 3740 c0 -13 4 -16 10 -10 7 7 7 13 0 20 -6 6 -10 3 -10 -10z"/>
<path d="M5255 2000 c-3 -5 -1 -10 4 -10 6 0 11 5 11 10 0 6 -2 10 -4 10 -3 0
-8 -4 -11 -10z"/>
<path d="M5135 1600 c-3 -5 -1 -10 4 -10 6 0 11 5 11 10 0 6 -2 10 -4 10 -3 0
-8 -4 -11 -10z"/>
<path d="M2185 3920 c-33 -4 -69 -11 -80 -15 -69 -27 -158 -135 -199 -240 -15
-38 -31 -80 -37 -93 -9 -22 -4 -21 63 16 40 22 100 48 133 58 51 16 74 32 150
105 50 47 111 98 138 113 45 27 56 40 39 50 -16 10 -150 14 -207 6z m-7 -57
c-10 -2 -26 -2 -35 0 -10 3 -2 5 17 5 19 0 27 -2 18 -5z m-108 -18 c0 -8 -4
-15 -10 -15 -5 0 -7 7 -4 15 4 8 8 15 10 15 2 0 4 -7 4 -15z m58 6 c11 -7 10
-9 -3 -14 -9 -4 -14 -3 -10 2 3 5 -1 12 -7 14 -7 3 -8 6 -3 6 6 0 16 -3 23 -8z
m-22 -38 c-7 -7 -26 7 -26 19 0 6 6 6 15 -2 9 -7 13 -15 11 -17z m-66 13 c0
-2 -7 -9 -15 -16 -13 -11 -14 -10 -9 4 5 14 24 23 24 12z m2 -38 c-7 -7 -12
-8 -12 -2 0 14 12 26 19 19 2 -3 -1 -11 -7 -17z m182 13 c3 -5 -1 -11 -9 -14
-9 -4 -12 -1 -8 9 6 16 10 17 17 5z m-204 -26 c0 -1 -9 -5 -19 -8 -13 -3 -18
-1 -14 9 4 10 33 10 33 -1z m42 -2 c-6 -3 -10 -8 -7 -13 3 -4 -2 -13 -11 -21
-12 -10 -18 -10 -30 3 -13 13 -13 15 0 15 8 0 12 -5 9 -10 -3 -5 0 -8 8 -5 8
3 14 9 14 14 0 16 17 36 24 28 3 -4 0 -9 -7 -11z m113 -5 c-9 -6 -19 -7 -22
-4 -4 3 -1 6 6 6 7 0 9 4 6 10 -4 6 1 7 11 3 15 -6 15 -7 -1 -15z m-40 -8 c3
-5 1 -10 -4 -10 -6 0 -11 5 -11 10 0 6 2 10 4 10 3 0 8 -4 11 -10z m39 -22
c-3 -4 -9 -8 -15 -8 -5 0 -9 4 -9 8 0 5 7 9 15 9 8 0 12 -4 9 -9z m-171 -13
c4 -8 3 -16 -1 -19 -4 -3 -9 4 -9 15 -2 23 3 25 10 4z m87 -5 c0 -5 -4 -10
-10 -10 -5 0 -10 5 -10 10 0 6 5 10 10 10 6 0 10 -4 10 -10z m-159 -53 c-10
-9 -11 -8 -5 6 3 10 9 15 12 12 3 -3 0 -11 -7 -18z"/>
<path d="M1846 3504 c-19 -19 -20 -25 -3 -49 20 -26 67 -13 67 18 0 43 -35 60
-64 31z"/>
<path d="M2070 2724 c-30 -13 -48 -23 -40 -23 18 -1 100 36 100 44 0 3 -1 4
-2 4 -2 -1 -28 -12 -58 -25z"/>
<path d="M4354 2726 c11 -9 24 -16 30 -16 12 0 7 5 -24 19 -24 11 -24 11 -6
-3z"/>
<path d="M4438 2693 c7 -3 16 -2 19 1 4 3 -2 6 -13 5 -11 0 -14 -3 -6 -6z"/>
<path d="M1416 2665 c-11 -30 -6 -46 17 -54 31 -12 67 21 51 47 -15 23 -60 28
-68 7z"/>
<path d="M1880 2660 c-8 -5 -10 -10 -5 -10 6 0 17 5 25 10 8 5 11 10 5 10 -5
0 -17 -5 -25 -10z"/>
<path d="M4589 2645 c29 -14 55 -24 58 -22 2 3 -15 12 -39 22 -69 28 -78 27
-19 0z"/>
<path d="M1820 2635 c-14 -8 -20 -14 -15 -14 6 0 21 6 35 14 14 8 21 14 15 14
-5 0 -21 -6 -35 -14z"/>
<path d="M1775 2581 c-7 -13 34 -101 47 -101 5 0 7 -4 4 -9 -3 -5 1 -14 9 -21
8 -7 12 -16 10 -21 -6 -9 29 -85 52 -110 7 -9 13 -20 12 -25 -4 -22 2 -35 13
-28 7 5 9 2 6 -7 -3 -8 4 -34 17 -58 17 -34 23 -40 28 -27 5 11 3 15 -5 10 -8
-5 -9 -2 -5 10 5 11 3 15 -5 10 -8 -5 -9 -2 -5 9 4 10 -5 37 -23 66 -15 27
-25 53 -22 57 4 4 1 4 -6 0 -8 -5 -13 -3 -11 5 3 28 -1 40 -13 33 -8 -5 -9 -2
-5 10 5 11 3 15 -4 10 -7 -4 -10 -1 -7 7 5 13 -26 87 -41 99 -8 6 -31 48 -31
55 0 4 6 3 13 -1 7 -5 7 -1 -3 12 -8 10 -15 20 -16 22 -1 2 -5 -2 -9 -7z m173
-356 c-3 -3 -9 2 -12 12 -6 14 -5 15 5 6 7 -7 10 -15 7 -18z"/>
<path d="M4654 2579 c-3 -6 -1 -16 5 -22 8 -8 11 -5 11 11 0 24 -5 28 -16 11z"/>
<path d="M1765 2500 c2 -37 35 -100 52 -100 7 0 10 7 7 15 -4 8 -10 15 -15 15
-5 0 -9 8 -9 18 0 17 -27 82 -34 82 -2 0 -2 -13 -1 -30z m23 -35 c-3 -3 -9 2
-12 12 -6 14 -5 15 5 6 7 -7 10 -15 7 -18z"/>
<path d="M4615 2499 c-9 -17 -15 -33 -13 -35 3 -2 12 12 21 31 21 43 13 47 -8
4z"/>
<path d="M1816 2375 c4 -8 10 -12 15 -9 11 6 2 24 -11 24 -5 0 -7 -7 -4 -15z"/>
<path d="M1836 2351 c-3 -5 1 -11 9 -15 8 -3 15 -10 15 -16 0 -6 -4 -8 -10 -5
-5 3 5 -25 23 -63 20 -43 35 -65 40 -58 5 7 7 3 4 -10 -6 -28 47 -133 56 -110
5 11 3 15 -5 10 -8 -5 -9 -2 -5 10 5 11 3 15 -5 10 -8 -5 -9 -2 -5 10 8 20
-43 127 -57 119 -5 -4 -7 1 -3 11 5 11 3 15 -5 10 -8 -5 -9 -2 -5 10 5 11 3
15 -5 10 -8 -5 -9 -2 -5 10 4 9 0 30 -8 47 -17 31 -21 34 -29 20z m114 -225
c0 -12 -5 -7 -19 24 -11 24 -11 24 3 6 9 -11 16 -24 16 -30z"/>
<path d="M4545 2349 c-4 -6 -5 -12 -2 -15 2 -3 7 2 10 11 7 17 1 20 -8 4z"/>
<path d="M4525 2309 c-4 -6 -5 -12 -2 -15 2 -3 7 2 10 11 7 17 1 20 -8 4z"/>
<path d="M1861 2220 c14 -31 19 -36 19 -24 0 6 -7 19 -16 30 -14 18 -14 18 -3
-6z"/>
<path d="M4475 2199 c-4 -6 -5 -12 -2 -15 2 -3 7 2 10 11 7 17 1 20 -8 4z"/>
<path d="M1976 2153 c-6 -14 -5 -15 5 -6 7 7 10 15 7 18 -3 3 -9 -2 -12 -12z"/>
<path d="M4457 2163 c-4 -3 -7 -11 -7 -17 0 -6 5 -5 12 2 6 6 9 14 7 17 -3 3
-9 2 -12 -2z"/>
<path d="M1985 2131 c-3 -6 -2 -11 4 -11 6 0 8 -8 5 -17 -5 -15 -4 -16 5 -3 9
12 11 13 11 1 0 -8 3 -12 6 -8 3 3 -1 15 -9 27 -9 13 -17 17 -22 11z"/>
<path d="M1931 2060 c6 -16 15 -32 20 -35 4 -3 3 8 -2 25 -6 16 -15 32 -20 35
-4 3 -3 -8 2 -25z"/>
<path d="M2023 2033 c16 -33 23 -40 29 -28 11 19 -15 72 -35 72 -12 0 -11 -9
6 -44z m26 -18 c0 -5 -6 1 -14 15 -8 14 -14 30 -14 35 0 6 6 -1 14 -15 8 -14
14 -29 14 -35z"/>
<path d="M1977 2057 c-3 -8 -1 -20 4 -28 5 -8 9 -9 9 -4 0 11 20 -16 20 -28 0
-5 -5 -5 -10 -2 -6 4 4 -23 22 -59 17 -36 36 -62 42 -59 5 4 7 -1 3 -11 -4 -9
-3 -15 1 -12 5 3 16 -11 25 -30 20 -41 21 -48 6 -39 -6 4 -1 -13 11 -36 28
-55 26 -53 34 -34 3 9 2 14 -3 11 -5 -3 -12 1 -15 10 -8 22 -8 26 5 19 5 -4
-6 25 -26 64 -19 39 -40 71 -46 71 -6 0 -8 7 -5 16 6 17 -49 134 -64 134 -5 0
-7 7 -4 15 4 8 4 15 1 15 -3 0 -7 -6 -10 -13z m72 -142 c0 -5 -8 6 -19 25 -11
19 -19 40 -19 45 0 6 8 -6 19 -25 11 -19 19 -39 19 -45z"/>
<path d="M1492 2048 c-32 -32 2 -79 43 -60 30 14 33 47 6 62 -25 13 -34 13
-49 -2z"/>
<path d="M1966 1997 c3 -10 9 -15 12 -12 3 3 0 11 -7 18 -10 9 -11 8 -5 -6z"/>
<path d="M2057 1986 c-4 -10 -3 -15 3 -11 6 3 10 1 10 -6 0 -7 3 -10 6 -6 3 3
2 13 -4 22 -8 16 -9 16 -15 1z"/>
<path d="M2087 1933 c4 -11 3 -14 -5 -9 -9 6 -9 1 0 -19 7 -16 14 -21 18 -14
5 7 9 5 14 -6 8 -23 8 -27 -4 -20 -6 4 -3 -10 7 -30 13 -27 19 -32 25 -21 6
10 -2 36 -22 76 -28 56 -48 81 -33 43z m53 -108 c0 -5 -5 -3 -10 5 -5 8 -10
20 -10 25 0 6 5 3 10 -5 5 -8 10 -19 10 -25z"/>
<path d="M2017 1885 c9 -19 18 -33 21 -31 4 5 -26 66 -33 66 -3 0 3 -16 12
-35z"/>
<path d="M4300 1829 c-7 -11 -10 -23 -7 -25 2 -2 9 7 15 21 14 30 7 33 -8 4z"/>
<path d="M2167 1763 c4 -11 3 -14 -6 -9 -7 5 2 -21 20 -56 38 -76 35 -73 43
-53 4 11 2 14 -6 9 -8 -5 -9 -2 -5 10 4 10 -4 38 -18 67 -24 47 -41 67 -28 32z
m42 -88 c0 -5 -8 6 -19 25 -11 19 -19 40 -19 45 0 6 8 -6 19 -25 11 -19 19
-39 19 -45z"/>
<path d="M2097 1715 c9 -19 18 -33 21 -31 4 5 -26 66 -33 66 -3 0 3 -16 12
-35z"/>
<path d="M2164 1660 c4 -48 40 -119 49 -96 4 11 3 15 -4 10 -7 -4 -9 0 -6 12
3 11 -5 39 -18 64 l-23 45 2 -35z m35 -65 c0 -5 -6 1 -14 15 -8 14 -14 30 -14
35 0 6 6 -1 14 -15 8 -14 14 -29 14 -35z"/>
<path d="M2237 1606 c-4 -9 -3 -15 2 -12 5 3 11 -1 15 -9 3 -8 16 -14 28 -14
22 2 22 2 2 6 -12 2 -26 14 -31 25 -8 19 -10 20 -16 4z"/>
<path d="M1650 1589 c-12 -8 -11 -9 6 -5 11 4 29 -1 40 -9 19 -15 19 -15 0
-30 -11 -8 -28 -15 -38 -15 -10 0 -18 -7 -18 -16 0 -8 -5 -12 -11 -8 -7 4 -9
21 -6 43 6 33 5 34 -8 17 -21 -28 -18 -54 10 -81 47 -48 125 -20 125 44 0 49
-62 87 -100 60z"/>
<path d="M4063 1583 c15 -2 37 -2 50 0 12 2 0 4 -28 4 -27 0 -38 -2 -22 -4z"/>
<path d="M4158 1573 c6 -2 18 -2 25 0 6 3 1 5 -13 5 -14 0 -19 -2 -12 -5z"/>
<path d="M2170 1553 c0 -5 7 -18 15 -29 13 -18 14 -18 8 4 -5 22 -23 41 -23
25z"/>
<path d="M2368 1553 c6 -2 18 -2 25 0 6 3 1 5 -13 5 -14 0 -19 -2 -12 -5z"/>
<path d="M3928 1553 c7 -3 16 -2 19 1 4 3 -2 6 -13 5 -11 0 -14 -3 -6 -6z"/>
<path d="M3978 1553 c7 -3 16 -2 19 1 4 3 -2 6 -13 5 -11 0 -14 -3 -6 -6z"/>
<path d="M2263 1543 c9 -2 23 -2 30 0 6 3 -1 5 -18 5 -16 0 -22 -2 -12 -5z"/>
<path d="M4043 1543 c15 -2 37 -2 50 0 12 2 0 4 -28 4 -27 0 -38 -2 -22 -4z"/>
<path d="M2217 1523 c3 -7 6 -13 8 -13 2 0 5 6 8 13 3 8 -1 14 -8 14 -7 0 -11
-6 -8 -14z"/>
<path d="M2747 1513 c-32 -9 -56 -17 -53 -20 2 -2 24 1 47 8 24 6 71 15 104
19 l60 7 -50 1 c-27 0 -76 -7 -108 -15z"/>
<path d="M2237 1506 c-11 -28 3 -46 37 -45 l31 1 -29 7 c-39 8 -46 29 -9 25
17 -2 20 -1 8 3 -11 3 -23 10 -26 15 -3 5 -9 3 -12 -6z"/>
<path d="M2911 1516 c2 -2 29 -6 59 -9 36 -4 46 -3 30 3 -25 8 -97 13 -89 6z"/>
<path d="M2338 1503 c12 -2 32 -2 45 0 12 2 2 4 -23 4 -25 0 -35 -2 -22 -4z"/>
<path d="M4053 1503 c15 -2 37 -2 50 0 12 2 0 4 -28 4 -27 0 -38 -2 -22 -4z"/>
<path d="M4148 1493 c6 -2 18 -2 25 0 6 3 1 5 -13 5 -14 0 -19 -2 -12 -5z"/>
<path d="M2508 1483 c7 -3 16 -2 19 1 4 3 -2 6 -13 5 -11 0 -14 -3 -6 -6z"/>
<path d="M2368 1473 c12 -2 30 -2 40 0 9 3 -1 5 -23 4 -22 0 -30 -2 -17 -4z"/>
<path d="M3788 1473 c7 -3 16 -2 19 1 4 3 -2 6 -13 5 -11 0 -14 -3 -6 -6z"/>
<path d="M3958 1473 c7 -3 16 -2 19 1 4 3 -2 6 -13 5 -11 0 -14 -3 -6 -6z"/>
<path d="M3849 1455 c18 -9 61 -17 95 -19 33 -2 48 -2 31 0 -37 6 -113 21
-140 29 -11 3 -5 -2 14 -10z"/>
<path d="M4023 1463 c15 -2 37 -2 50 0 12 2 0 4 -28 4 -27 0 -38 -2 -22 -4z"/>
<path d="M2221 1454 c-2 -21 25 -46 45 -41 18 4 17 5 -2 6 -12 0 -26 11 -32
24 -6 12 -11 17 -11 11z"/>
<path d="M2537 1454 c-3 -3 -59 -12 -124 -19 -65 -7 -102 -13 -83 -14 54 -1
198 17 218 28 9 6 12 11 6 11 -6 0 -13 -3 -17 -6z"/>
<path d="M4043 1423 c15 -2 37 -2 50 0 12 2 0 4 -28 4 -27 0 -38 -2 -22 -4z"/>
<path d="M4138 1413 c6 -2 18 -2 25 0 6 3 1 5 -13 5 -14 0 -19 -2 -12 -5z"/>
<path d="M1670 1235 c-15 -18 -10 -45 12 -59 14 -8 22 -6 39 10 17 18 19 25
10 43 -13 24 -43 28 -61 6z"/>
<path d="M1780 1145 c17 -20 -3 -45 -35 -45 -14 0 -25 -7 -28 -17 -3 -15 -6
-14 -15 7 l-11 25 0 -23 c-1 -29 50 -82 79 -82 30 0 70 44 70 78 0 31 -32 72
-57 72 -13 0 -13 -3 -3 -15z"/>
<path d="M1189 444 c-13 -14 -36 -32 -51 -40 -36 -19 -40 -59 -5 -51 12 2 30
8 39 12 15 6 18 -3 20 -82 3 -81 5 -88 24 -91 28 -4 34 19 34 135 0 89 -11
143 -28 143 -5 0 -19 -12 -33 -26z"/>
<path d="M1394 460 c-53 -21 -73 -111 -34 -150 26 -26 63 -34 89 -20 17 9 21
8 21 -5 0 -51 -42 -71 -73 -35 -24 28 -47 26 -47 -4 0 -46 79 -73 132 -45 29
16 48 70 48 140 0 56 -3 64 -34 95 -34 34 -61 41 -102 24z m64 -52 c29 -29 3
-84 -35 -76 -25 5 -40 52 -23 72 15 19 41 21 58 4z"/>
<path d="M1875 462 c-35 -12 -52 -26 -59 -50 -11 -32 21 -42 45 -14 20 25 57
29 65 7 9 -21 -14 -45 -42 -45 -17 0 -24 -6 -24 -20 0 -18 11 -25 33 -21 19 3
47 -22 47 -42 0 -53 -47 -62 -83 -16 -27 35 -47 32 -47 -6 0 -34 44 -65 92
-65 30 0 46 7 69 29 33 34 37 69 10 102 -15 19 -16 26 -5 47 18 35 1 78 -38
91 -34 12 -34 12 -63 3z"/>
<path d="M4454 451 c-36 -22 -47 -53 -29 -78 11 -14 15 -15 29 -4 8 7 18 21
21 32 8 23 47 26 64 5 17 -20 2 -44 -60 -103 -96 -89 -89 -113 30 -113 78 0
104 10 94 36 -3 10 -23 14 -61 14 l-56 0 57 54 c44 43 57 61 57 85 0 43 -9 60
-41 76 -38 20 -68 19 -105 -4z"/>
<path d="M4691 445 c-34 -30 -48 -87 -37 -159 14 -93 96 -128 157 -67 27 27
29 35 29 100 0 82 -13 117 -51 137 -40 20 -63 17 -98 -11z m93 -78 c11 -56 -1
-115 -26 -131 -28 -17 -42 7 -46 78 -5 74 9 109 41 104 18 -2 24 -13 31 -51z"/>
<path d="M4935 458 c-29 -17 -44 -40 -45 -65 0 -36 21 -38 49 -4 28 34 52 39
70 17 17 -21 0 -49 -67 -112 -41 -39 -53 -57 -50 -75 3 -23 6 -24 93 -24 83 0
90 1 90 20 0 17 -8 20 -59 23 l-60 3 57 53 c51 47 57 56 57 93 0 27 -6 46 -19
57 -24 22 -90 30 -116 14z"/>
<path d="M5181 461 c-29 -8 -66 -54 -57 -70 11 -17 34 -13 46 9 13 24 58 27
66 5 8 -20 -13 -45 -38 -45 -19 0 -36 -25 -25 -37 4 -3 17 -7 31 -8 35 -4 46
-13 46 -39 0 -52 -44 -60 -81 -15 -28 35 -49 32 -49 -6 0 -33 44 -65 91 -65
73 0 123 79 81 130 -17 21 -17 26 -5 51 18 36 1 74 -40 89 -33 11 -31 11 -66
1z"/>
<path d="M1585 450 c-14 -22 17 -40 67 -40 l49 0 -25 -42 c-33 -58 -58 -136
-50 -160 4 -12 13 -18 27 -16 17 2 24 16 37 69 8 36 30 88 48 116 51 79 47 83
-57 83 -52 0 -93 -4 -96 -10z"/>
</g>
</svg>
